<svg width="25" height="26" viewBox="0 0 25 26" fill="none" xmlns="http://www.w3.org/2000/svg">
<g id="Icon" clip-path="url(#clip0_79_1159)">
<path id="Vector" d="M13.8785 6.22985C13.8785 6.22985 13.5802 6.1132 12.9835 5.8799C12.3868 5.6466 11.402 5.52996 10.0292 5.52996C8.65629 5.52996 7.37316 5.76325 6.17975 6.22985C4.98635 6.69644 4.03746 7.32903 3.33308 8.12763C2.62871 8.92622 2.27652 9.78314 2.27652 10.6984C2.27652 11.4342 2.5143 12.143 2.98987 12.825C3.46543 13.5069 4.13392 14.0991 4.99532 14.6016L6.30089 15.3553L5.82981 16.4859C6.13489 16.3065 6.41305 16.1315 6.66429 15.961L7.25651 15.5438L7.96986 15.6784C8.66975 15.804 9.35618 15.8668 10.0292 15.8668C11.402 15.8668 12.6851 15.6335 13.8785 15.1669C15.0719 14.7003 16.0208 14.0677 16.7252 13.2691C17.4296 12.4705 17.7818 11.6136 17.7818 10.6984C17.7818 9.78314 17.4296 8.92622 16.7252 8.12763C16.0208 7.32903 15.0719 6.69644 13.8785 6.22985ZM5.27124 4.72912C5.27124 4.72912 5.63577 4.57546 6.36482 4.26814C7.09387 3.96081 8.31532 3.80715 10.0292 3.80715C11.743 3.80715 13.329 4.11447 14.7871 4.72912C16.2452 5.34377 17.3959 6.1805 18.2394 7.2393C19.0829 8.29811 19.5046 9.45114 19.5046 10.6984C19.5046 11.9456 19.0829 13.0986 18.2394 14.1575C17.3959 15.2163 16.2452 16.053 14.7871 16.6676C13.329 17.2823 11.743 17.5896 10.0292 17.5896C9.25748 17.5896 8.46786 17.5178 7.66029 17.3743C6.54764 18.1639 5.3004 18.7381 3.91857 19.0971C3.59554 19.1778 3.20971 19.2496 2.76106 19.3124H2.72068C2.62198 19.3124 2.53 19.2765 2.44476 19.2047C2.35952 19.133 2.30792 19.0387 2.28998 18.9221C2.281 18.8952 2.27652 18.866 2.27652 18.8346C2.27652 18.8032 2.27876 18.774 2.28325 18.7471C2.28773 18.7202 2.29671 18.6933 2.31017 18.6664C2.32363 18.6394 2.33484 18.617 2.34382 18.5991C2.35279 18.5811 2.36849 18.5564 2.39092 18.525C2.41336 18.4936 2.4313 18.4712 2.44476 18.4577C2.45822 18.4443 2.47841 18.4218 2.50533 18.3904C2.53225 18.359 2.55019 18.3388 2.55917 18.3299C2.60403 18.276 2.70722 18.1639 2.86873 17.9934C3.03025 17.8229 3.14689 17.6906 3.21868 17.5963C3.29046 17.5021 3.39141 17.372 3.52152 17.206C3.65162 17.04 3.76379 16.8673 3.858 16.6878C3.95222 16.5084 4.04419 16.311 4.13392 16.0956C3.02127 15.4496 2.14641 14.6554 1.50933 13.7133C0.872251 12.7711 0.553711 11.7662 0.553711 10.6984C0.553711 9.45114 0.97544 8.29811 1.8189 7.2393C2.66235 6.1805 3.81314 5.34377 5.27124 4.72912ZM21.0928 19.5412C21.1825 19.7566 21.2745 19.954 21.3687 20.1334C21.4629 20.3129 21.5751 20.4856 21.7052 20.6516C21.8353 20.8176 21.9363 20.9477 22.008 21.0419C22.0798 21.1362 22.1965 21.2685 22.358 21.439C22.5195 21.6095 22.6227 21.7216 22.6676 21.7755C22.6765 21.7845 22.6945 21.8046 22.7214 21.8361C22.7483 21.8675 22.7685 21.8899 22.782 21.9034C22.7954 21.9168 22.8134 21.9392 22.8358 21.9706C22.8582 22.0021 22.8739 22.0267 22.8829 22.0447C22.8919 22.0626 22.9031 22.0851 22.9166 22.112C22.93 22.1389 22.939 22.1658 22.9435 22.1927C22.948 22.2196 22.9502 22.2488 22.9502 22.2802C22.9502 22.3116 22.9457 22.3408 22.9367 22.3677C22.9098 22.4933 22.8515 22.592 22.7618 22.6638C22.672 22.7356 22.5733 22.767 22.4657 22.758C22.017 22.6952 21.6312 22.6234 21.3082 22.5427C19.9263 22.1838 18.6791 21.6095 17.5664 20.8199C16.7589 20.9634 15.9692 21.0352 15.1976 21.0352C12.7659 21.0352 10.6483 20.443 8.84472 19.2586C9.36515 19.2945 9.75996 19.3124 10.0292 19.3124C11.4738 19.3124 12.8601 19.1105 14.1881 18.7067C15.5161 18.303 16.7005 17.7242 17.7414 16.9705C18.863 16.145 19.7244 15.1938 20.3256 14.1171C20.9268 13.0403 21.2274 11.9008 21.2274 10.6984C21.2274 10.0075 21.1242 9.32552 20.9178 8.65254C22.0753 9.28962 22.9906 10.0882 23.6636 11.0483C24.3365 12.0084 24.673 13.0403 24.673 14.144C24.673 15.2207 24.3545 16.228 23.7174 17.1656C23.0803 18.1033 22.2054 18.8952 21.0928 19.5412Z" fill="white"/>
</g>
<defs>
<clipPath id="clip0_79_1159">
<rect width="24.1193" height="24.9807" fill="white" transform="matrix(1 0 0 -1 0.553223 25.1467)"/>
</clipPath>
</defs>
</svg>
