<svg width="35" height="36" viewBox="0 0 35 36" fill="none" xmlns="http://www.w3.org/2000/svg">
<g id="Icon" clip-path="url(#clip0_66_415)">
<path id="Vector" d="M34.5942 21.4685L34.8625 23.0779C34.9519 23.4355 34.8848 23.7485 34.6613 24.0167C34.3931 24.419 34.0131 24.5755 33.5213 24.4861L32.7836 24.2849C29.4307 24.6426 26.6589 24.8214 24.4684 24.8214C23.2166 24.8214 22.3448 24.7543 21.8531 24.6202C20.8248 24.352 19.886 24.2626 19.0366 24.352C18.366 24.4414 16.6672 24.5532 13.9401 24.6873C14.2978 24.9108 14.6554 25.112 15.0131 25.2908C15.2813 25.3802 15.4042 25.5702 15.3819 25.8608C15.3595 26.1514 15.2366 26.3638 15.0131 26.4979C14.6554 26.632 14.3425 26.7661 14.0743 26.9002C13.5378 27.079 12.979 27.1685 12.3978 27.1685C12.1295 27.1685 11.839 27.1461 11.526 27.1014L7.90485 26.4308C7.50249 26.3414 7.23426 26.1179 7.10014 25.7602C6.96602 25.492 6.96602 25.2014 7.10014 24.8885L7.1672 24.7543C5.96014 24.6202 5.24485 24.0614 5.02132 23.0779C4.70838 23.0779 4.39544 23.0108 4.0825 22.8767C3.3225 22.6085 2.71897 21.9155 2.27191 20.7979C1.86956 19.8143 2.07074 18.6743 2.87544 17.3779C3.23309 16.7073 3.65779 16.1708 4.14956 15.7685C4.4625 15.4555 4.95426 14.9861 5.62485 14.3602C5.44602 14.2708 5.24485 14.1814 5.02132 14.092C4.52956 13.8685 4.03779 13.8685 3.54603 14.092L3.00956 14.2932C2.51779 14.5167 2.04838 14.4496 1.60132 14.092L0.997795 13.6226C0.774266 13.4438 0.640149 13.2202 0.595443 12.952C0.550737 12.6391 0.617796 12.3708 0.796619 12.1473C0.930737 12.0132 1.02015 11.9014 1.06485 11.812L1.86956 10.4708C2.13779 10.1132 2.47309 10.0238 2.87544 10.2026L3.81426 10.672C4.30603 10.8955 4.82014 10.9849 5.35661 10.9402L9.91661 10.672C11.2131 9.59907 12.0625 8.99554 12.4648 8.86142C13.046 8.6826 13.5601 8.74966 14.0072 9.0626C14.5884 9.42024 14.946 9.97907 15.0801 10.7391C17.0025 10.5155 18.7907 11.1414 20.4448 12.6167C21.2495 13.2873 21.8978 14.0473 22.3895 14.8967C22.7472 14.8967 23.1384 14.9079 23.5631 14.9302C23.9878 14.9526 24.5242 15.0308 25.1725 15.1649C25.8207 15.2991 26.3907 15.5449 26.8825 15.9026C27.3742 16.2602 27.7095 16.7296 27.8884 17.3108C28.246 18.5626 28.0448 19.6579 27.2848 20.5967C27.0166 20.9096 26.7036 21.1779 26.346 21.4014C28.7154 21.4461 30.3025 21.4461 31.1072 21.4014C31.6436 21.312 32.0683 21.0661 32.3813 20.6638C32.6942 20.2614 32.8731 19.9149 32.9178 19.6243C32.9625 19.3338 32.9848 19.0767 32.9848 18.8532L32.8507 18.3167C32.7613 18.0038 32.8395 17.7579 33.0854 17.5791C33.3313 17.4002 33.5883 17.4226 33.8566 17.6461L34.326 18.0485C34.8178 18.4061 35.0189 18.8979 34.9295 19.5238L34.5942 21.4685ZM13.4707 16.4391C12.9343 17.5567 12.4648 18.5626 12.0625 19.4567C12.9566 18.8755 14.0966 18.3391 15.4825 17.8473C15.9295 17.6685 16.3766 17.512 16.8237 17.3779C15.8848 17.1991 14.7672 16.8861 13.4707 16.4391ZM17.9637 17.5791C16.399 17.9814 14.9237 18.5179 13.5378 19.1885C16.5331 19.3673 19.0142 19.9485 20.9813 20.932C21.2495 21.0661 21.5401 21.1555 21.8531 21.2002C20.5119 20.5296 19.4613 19.3449 18.7013 17.6461C18.6119 17.6461 18.5001 17.6461 18.366 17.6461C18.2319 17.6461 18.0978 17.6238 17.9637 17.5791ZM12.666 9.33083C12.1743 9.46495 10.9448 10.3814 8.97779 12.0802C9.8719 12.1249 10.5425 12.2144 10.9895 12.3485C11.1684 12.3932 11.3472 12.3932 11.526 12.3485C12.2413 12.2591 13.3143 12.3261 14.7448 12.5497C14.7895 12.1026 14.7672 11.6108 14.6778 11.0744C14.6778 10.9402 14.6554 10.8732 14.6107 10.8732C14.5213 10.2026 14.2307 9.73318 13.739 9.46495C13.426 9.24142 13.0684 9.19671 12.666 9.33083ZM2.67426 10.672C2.54015 10.5826 2.42838 10.6049 2.33897 10.7391L2.00368 11.2085C2.54015 11.0297 3.00956 11.0967 3.41191 11.4097L4.21662 12.0132C4.48485 12.192 4.77544 12.2814 5.08838 12.2814C6.25073 12.192 7.30132 12.1249 8.24014 12.0802C8.59779 11.7673 8.95543 11.4767 9.31308 11.2085L5.42367 11.4097C4.79779 11.4544 4.19426 11.3426 3.61309 11.0744L2.67426 10.672ZM3.34485 13.6226C3.97073 13.3544 4.59661 13.3544 5.2225 13.6226C5.53544 13.8014 5.84838 13.9579 6.16132 14.092C7.36838 14.5838 8.41896 14.9191 9.31308 15.0979C9.98367 15.232 10.5425 15.2767 10.9895 15.232C11.2578 15.1873 11.5484 15.2096 11.8613 15.2991C12.3978 15.5226 12.9343 15.7238 13.4707 15.9026C15.3484 16.5732 16.846 16.9755 17.9637 17.1096C18.2766 17.1544 18.5672 17.1544 18.8354 17.1096C19.2825 17.0202 19.6401 16.7967 19.9084 16.4391C20.1766 16.0814 20.3331 15.802 20.3778 15.6008C20.4225 15.3996 20.4672 15.232 20.5119 15.0979C20.5119 14.9638 20.5901 14.8967 20.7466 14.8967C20.9031 14.8967 20.9813 14.9861 20.9813 15.1649C20.9366 15.5226 20.8248 15.8802 20.646 16.2379C20.3331 16.8638 19.8637 17.2885 19.2378 17.512C20.266 19.9261 21.9872 21.2002 24.4013 21.3343C24.4013 21.3343 24.4237 21.3343 24.4684 21.3343C25.5413 21.3791 26.346 21.0214 26.8825 20.2614C27.5531 19.4567 27.7319 18.5179 27.4189 17.4449C27.2401 16.7744 26.6813 16.2714 25.7425 15.9361C24.8036 15.6008 24.0772 15.422 23.5631 15.3996C23.0489 15.3773 22.6354 15.3661 22.3225 15.3661C22.1884 15.3661 22.0989 15.3214 22.0542 15.232C22.0095 15.1426 21.9089 14.9861 21.7525 14.7626C21.596 14.5391 21.2942 14.1814 20.8472 13.6896C20.4001 13.1979 19.9307 12.7732 19.4389 12.4155C18.9472 12.0579 18.3101 11.7449 17.5278 11.4767C16.7454 11.2085 15.9742 11.1191 15.2142 11.2085C15.259 11.7002 15.259 12.1697 15.2142 12.6167C16.3319 12.7955 17.3601 12.9967 18.299 13.2202C18.4778 13.2649 18.5448 13.3655 18.5001 13.522C18.4554 13.6785 18.366 13.7344 18.2319 13.6896C17.2037 13.4214 16.086 13.1979 14.879 13.0191C13.4037 12.8402 12.3084 12.7955 11.5931 12.8849C11.3248 12.8849 11.079 12.8626 10.8554 12.8179C10.3637 12.6391 9.51426 12.572 8.3072 12.6167C7.36838 12.6167 6.29544 12.6614 5.08838 12.7508C4.64132 12.7955 4.23897 12.6838 3.88132 12.4155L3.14368 11.812C2.74132 11.4544 2.33897 11.4544 1.93662 11.812L1.26603 12.3485C1.13191 12.4826 1.06485 12.6279 1.06485 12.7844C1.06485 12.9408 1.13191 13.0861 1.26603 13.2202L1.86956 13.6896C2.1825 13.9579 2.49544 14.0026 2.80838 13.8238L3.34485 13.6226ZM8.17308 21.5355C8.66484 18.4061 8.95543 16.4167 9.04484 15.5673C8.19543 15.3885 7.23426 15.0532 6.16132 14.5614C5.93779 14.7402 5.73661 14.9191 5.55779 15.0979C5.42367 15.5896 5.31191 16.1373 5.2225 16.7408C5.13308 17.3444 5.16661 18.2496 5.32308 19.4567C5.47955 20.6638 5.89308 21.6249 6.56367 22.3402C6.96602 22.2061 7.41308 22.0049 7.90485 21.7367C8.03896 21.692 8.10602 21.6696 8.10602 21.6696C8.15073 21.6696 8.17308 21.6249 8.17308 21.5355ZM2.74132 20.5967C3.14368 21.5802 3.65779 22.2061 4.28367 22.4743C4.77544 22.6532 5.35661 22.6532 6.0272 22.4743C5.04367 21.3567 4.59661 19.792 4.68603 17.7802C4.68603 17.0649 4.77544 16.3496 4.95426 15.6344C4.68603 15.8579 4.52956 16.0144 4.48485 16.1038C4.26132 16.2826 4.01544 16.5285 3.7472 16.8414C3.47897 17.1544 3.1772 17.7132 2.84191 18.5179C2.50662 19.3226 2.47309 20.0155 2.74132 20.5967ZM5.49073 23.0779C5.71426 23.7932 6.34014 24.1955 7.36838 24.2849L7.70367 23.6814C7.79308 23.4579 7.86014 23.212 7.90485 22.9438C7.94955 22.7202 7.99426 22.4743 8.03896 22.2061C7.05543 22.6979 6.20602 22.9885 5.49073 23.0779ZM14.8119 26.0285C14.8566 26.0285 14.879 25.9838 14.879 25.8943C14.879 25.8049 14.8566 25.7379 14.8119 25.6932C13.8284 25.2461 12.8895 24.6314 11.9954 23.849C11.1013 23.0667 10.6543 22.4296 10.6543 21.9379C10.6543 21.312 11.4366 19.412 13.0013 16.2379C12.5543 16.1038 12.1072 15.9473 11.6601 15.7685C11.4813 15.6791 11.2801 15.6567 11.0566 15.7014C10.6543 15.7461 10.1401 15.7238 9.51426 15.6344C9.42484 16.7073 9.04484 19.1661 8.37426 23.0108C8.32955 23.3238 8.24014 23.6143 8.10602 23.8826L7.56955 25.0896C7.48014 25.2685 7.48014 25.4473 7.56955 25.6261C7.65896 25.8049 7.79308 25.9167 7.9719 25.9614L11.6601 26.632C12.4201 26.7661 13.1801 26.699 13.9401 26.4308C14.2084 26.3414 14.499 26.2073 14.8119 26.0285ZM34.4601 19.4567C34.5048 19.0096 34.3707 18.652 34.0578 18.3838L33.5213 17.9814C33.4766 17.9367 33.4207 17.9367 33.3536 17.9814C33.2866 18.0261 33.2531 18.0932 33.2531 18.1826L33.4542 18.7191C33.4542 18.7638 33.4542 18.7861 33.4542 18.7861C33.4989 19.4567 33.3425 20.1161 32.9848 20.7643C32.6272 21.4126 32.0013 21.7814 31.1072 21.8708C29.766 22.0049 26.6813 21.9379 21.8531 21.6696C21.4507 21.6249 21.0931 21.5132 20.7801 21.3343C18.679 20.3061 15.9966 19.7249 12.7331 19.5908C12.3307 19.8143 11.9731 20.0602 11.6601 20.3285C11.3025 21.1779 11.1237 21.7143 11.1237 21.9379C11.1237 22.4743 11.8166 23.2343 13.2025 24.2179C16.3319 24.0838 18.2542 23.972 18.9695 23.8826C19.9084 23.7485 20.9142 23.8379 21.9872 24.1508C23.3731 24.5532 26.9719 24.4414 32.7836 23.8155C32.7836 23.8155 32.806 23.8155 32.8507 23.8155L33.5883 24.0167C33.8119 24.0614 34.0131 23.9943 34.1919 23.8155C34.3707 23.6367 34.4378 23.4355 34.3931 23.212L34.1248 21.5355C34.1248 21.4908 34.1248 21.4685 34.1248 21.4685L34.4601 19.4567Z" fill="#22B6F2"/>
</g>
<defs>
<clipPath id="clip0_66_415">
<rect width="34.3341" height="35.2878" fill="white" transform="matrix(1 0 0 -1 0.597656 35.6587)"/>
</clipPath>
</defs>
</svg>
