<svg width="39" height="39" viewBox="0 0 39 39" fill="none" xmlns="http://www.w3.org/2000/svg">
<g id="Icon" clip-path="url(#clip0_66_421)">
<path id="Vector" d="M36.9278 22.2265C37.0765 22.6231 37.0518 22.995 36.8534 23.342C36.6551 23.689 36.3577 23.9121 35.9611 24.0113C35.4653 24.16 35.0439 24.284 34.6969 24.3831C34.3994 25.3251 33.8541 26.4653 33.0609 27.8039C33.0609 29.0929 32.813 30.3075 32.3172 31.4477C31.7223 33.0342 30.5077 34.5463 28.6734 35.984C26.145 37.8679 23.2447 38.8098 19.9727 38.8098C18.7829 38.8098 17.5683 38.6859 16.3289 38.438C12.1644 37.5456 8.52058 34.8685 5.39728 30.4066C4.65363 29.3655 3.98435 28.2996 3.38944 27.209C2.79452 26.1183 2.37312 25.2383 2.12524 24.569C1.87736 23.8997 1.75342 23.4659 1.75342 23.2676C1.75342 22.871 2.81931 20.888 4.95109 17.3185C6.09135 15.4346 7.40512 13.3028 8.89241 10.9231C8.54537 10.5761 8.39664 10.1299 8.44622 9.58458L8.66931 8.54348C8.71889 7.99814 9.01635 7.72547 9.56169 7.72547C9.61126 7.72547 9.68563 7.75026 9.78478 7.79983L11.2721 1.25576C11.3712 0.908722 11.5943 0.735207 11.9413 0.735207C12.338 0.735207 12.6602 0.859146 12.9081 1.10703C13.0568 0.908722 13.2551 0.80957 13.503 0.80957C14.2466 0.80957 14.6928 1.18139 14.8416 1.92504L15.6596 5.49453C15.7587 5.9903 15.9075 6.46127 16.1058 6.90746L16.7007 8.17165C16.9486 8.71699 16.9733 9.27473 16.775 9.84485C16.5767 10.415 16.2049 10.824 15.6596 11.0719L15.5108 11.1462L15.0647 11.5924C18.3863 14.0217 20.7907 16.4509 22.278 18.8801C23.914 19.5246 25.5005 20.1691 27.0373 20.8136C27.3348 17.492 29.1443 15.8808 32.4659 15.9799C34.3498 16.0791 35.8371 18.1613 36.9278 22.2265ZM13.503 1.47885L13.3543 2.07377L14.0979 5.3458C14.1971 5.89114 14.3706 6.38691 14.6185 6.83309L15.139 8.09729C15.3869 8.59305 15.4241 9.1136 15.2506 9.65894C15.0771 10.2043 14.7672 10.6009 14.321 10.8488C14.3706 10.9479 14.445 11.0471 14.5441 11.1462L15.0647 10.6257C15.0647 10.6257 15.0894 10.6009 15.139 10.5513L15.3621 10.477C15.7092 10.2786 15.957 9.99358 16.1058 9.62176C16.2545 9.24994 16.2545 8.86572 16.1058 8.46911L15.5108 7.20492C15.3125 6.70915 15.139 6.1886 14.9903 5.64326L14.1723 2.07377C14.1227 1.72673 13.8996 1.52843 13.503 1.47885ZM11.9413 1.40449L10.3797 8.09729C11.7678 8.79136 12.9081 9.55979 13.8005 10.4026C14.1971 10.2043 14.4573 9.90682 14.5813 9.51021C14.7052 9.1136 14.6928 8.74178 14.5441 8.39475L13.9492 7.13055C13.7509 6.58521 13.5774 6.03987 13.4286 5.49453L12.685 1.9994C12.5858 1.60279 12.338 1.40449 11.9413 1.40449ZM2.4227 23.2676C2.47227 23.5651 2.73255 24.2592 3.20353 25.3498C3.6745 26.4405 4.49251 27.8534 5.65755 29.5886C6.8226 31.3238 8.12397 32.8359 9.56169 34.1249C10.5036 33.6787 11.3216 32.588 12.0157 30.8528C12.3132 30.0596 12.5611 29.2168 12.7594 28.3244C11.52 27.2833 9.58648 25.4986 6.95893 22.9702C6.85978 23.0198 6.73584 23.0445 6.58711 23.0445H6.51274C6.31444 23.0445 6.21529 22.9454 6.21529 22.7471C6.16571 22.4992 6.26486 22.3753 6.51274 22.3753C8.54537 22.177 10.2558 19.3511 11.6439 13.8977C11.3464 13.7986 11.1233 13.625 10.9746 13.3772L10.5284 12.6335C10.231 12.1378 9.85915 11.7164 9.41296 11.3693C4.90151 18.6075 2.57143 22.5736 2.4227 23.2676ZM19.824 31.0759L20.9395 31.0015C22.625 30.7041 23.914 28.7954 24.8064 25.2755L19.5265 21.3342C19.5265 21.3342 19.5265 21.3094 19.5265 21.2598L13.5774 14.3439C12.4371 18.8553 11.1729 21.6316 9.78478 22.6727C10.8259 23.813 12.3627 25.5482 14.3954 27.8782C16.5767 28.027 18.3863 29.0929 19.824 31.0759ZM9.1155 22.2265C9.85915 21.8795 10.5904 20.8508 11.3093 19.1404C12.0281 17.43 12.5858 15.7073 12.9825 13.9721H12.3132C11.1233 18.8306 9.58648 21.7308 7.70258 22.6727C10.2805 25.1515 12.1397 26.8867 13.2799 27.8782C13.2799 27.8782 13.3543 27.8782 13.503 27.8782C11.4208 25.4986 9.90872 23.813 8.96677 22.8215C8.9172 22.7223 8.9048 22.6108 8.92959 22.4868C8.95438 22.3629 9.01635 22.2761 9.1155 22.2265ZM10.0822 34.571C12.0653 36.2071 14.1971 37.2729 16.4776 37.7687C16.6263 37.7687 16.7998 37.7935 16.9981 37.8431C17.7418 37.2482 18.3367 36.0335 18.7829 34.1992C18.9812 33.3068 19.1547 32.4145 19.3034 31.5221C19.0556 31.1751 18.7457 30.8032 18.3739 30.4066C18.0021 30.01 17.3452 29.5762 16.4032 29.1053C15.4613 28.6343 14.4697 28.4484 13.4286 28.5475C12.7346 31.6708 11.6191 33.6787 10.0822 34.571ZM31.7223 31.2246C32.2676 29.7373 32.4659 28.2501 32.3172 26.7628C32.1685 24.9284 31.4496 23.6643 30.1606 22.9702C28.128 21.9291 25.3765 20.764 21.9062 19.4751C21.8566 19.4751 21.807 19.4255 21.7575 19.3263C21.4104 18.7314 20.8155 17.963 19.9727 17.021C18.3863 15.1371 16.4528 13.3772 14.1723 11.7411C14.1227 11.7411 14.0979 11.7164 14.0979 11.6668C13.8996 11.4685 13.7013 11.2454 13.503 10.9975C12.6106 10.1051 11.396 9.28712 9.85915 8.54348C9.71042 8.4939 9.61126 8.46911 9.56169 8.46911C9.41296 8.46911 9.33859 8.51869 9.33859 8.61784L9.1155 9.73331C9.06592 10.0803 9.18986 10.3778 9.48732 10.6257L9.71042 10.7744C10.3053 11.171 10.7763 11.6916 11.1233 12.3361L11.4952 13.0053C11.6439 13.2036 11.8422 13.3028 12.0901 13.3028H13.4286C13.5278 13.3028 13.6022 13.3524 13.6517 13.4515L19.9727 20.8136L28.4503 27.1346C28.5494 27.2337 28.599 27.3329 28.599 27.4321L28.4503 29.7373C28.4503 29.9357 28.3511 30.0348 28.1528 30.0348H28.0784C27.8801 30.0348 27.781 29.9109 27.781 29.663L27.9297 27.5808L25.4013 25.7217C24.4594 29.3903 22.9969 31.3734 21.0138 31.6708L19.8983 31.7452C19.5513 34.6702 18.8572 36.7524 17.8161 37.9918C18.5598 38.091 19.2786 38.1405 19.9727 38.1405C22.9969 38.1405 25.5624 37.3721 27.6694 35.8352C29.7764 34.2984 31.1274 32.7615 31.7223 31.2246ZM35.738 23.4164C36.2833 23.2676 36.4816 22.9206 36.3329 22.3753C35.2918 18.657 33.978 16.7731 32.3916 16.7236C30.8547 16.6244 29.7145 16.9219 28.9708 17.6159C28.2272 18.31 27.8058 19.4503 27.7066 21.0367C27.7066 21.0367 27.7066 21.0615 27.7066 21.1111C28.7973 21.6068 29.7145 22.0282 30.4581 22.3753C31.8958 23.1685 32.7386 24.5566 32.9865 26.5397C33.5318 25.449 33.9284 24.5814 34.1763 23.9369C34.1763 23.7882 34.2507 23.7138 34.3994 23.7138C34.7465 23.6643 35.1926 23.5651 35.738 23.4164Z" fill="#22B6F2"/>
</g>
<defs>
<clipPath id="clip0_66_421">
<rect width="38.149" height="38.149" fill="white" transform="matrix(1 0 0 -1 0.306152 38.8842)"/>
</clipPath>
</defs>
</svg>
