<svg width="42" height="42" viewBox="0 0 42 42" fill="none" xmlns="http://www.w3.org/2000/svg">
<g id="Icon" clip-path="url(#clip0_70_486)">
<path id="Vector" d="M35.1109 40.0218C35.1642 40.448 35.0843 40.821 34.8712 41.1407C34.6048 41.5137 34.2318 41.7268 33.7523 41.7801L32.7133 41.86C32.7133 41.86 32.6866 41.86 32.6334 41.86C32.4202 41.86 32.2604 41.7801 32.1538 41.6202C32.0473 41.4071 32.0473 41.194 32.1538 40.9808C32.5268 40.3947 32.7133 39.7021 32.7133 38.9029V38.5832C32.7133 38.2635 32.6334 37.9704 32.4735 37.704C31.248 35.6261 30.5021 34.0543 30.2357 32.9886C30.1824 32.669 30.0759 32.4025 29.916 32.1894C28.584 30.6975 27.2253 28.7528 25.84 26.3551L25.2006 26.515C23.0161 29.4987 21.2578 31.63 19.9258 32.9087C19.2331 33.9743 18.5671 34.8135 17.9277 35.4263C17.2883 36.039 16.2227 36.8249 14.7308 37.784C13.9316 38.3168 13.4787 38.8762 13.3721 39.4623C13.2656 39.8886 12.9725 40.155 12.493 40.2615C11.6938 40.4214 10.1486 40.4747 7.85752 40.4214C7.48456 40.4214 7.27143 40.2482 7.21815 39.9019C7.16487 39.5556 7.27143 39.3291 7.53784 39.2226C8.86987 38.5832 9.98878 38.0237 10.8946 37.5442C11.2675 36.6917 11.454 35.8126 11.454 34.9068C11.454 33.0419 11.5073 31.7632 11.6139 31.0705C11.6139 26.9678 11.9069 24.5169 12.493 23.7177C12.8127 23.2914 12.8393 22.6521 12.5729 21.7996L12.2532 22.1192C11.9868 22.9185 11.5206 23.5046 10.8546 23.8775C10.1886 24.2505 9.40268 24.3038 8.4969 24.0374C7.37799 23.7177 6.65869 23.0783 6.33901 22.1192C5.96604 21.0003 6.04596 20.0679 6.57877 19.322C6.84518 18.8957 7.52452 18.4561 8.61678 18.0033C9.70905 17.5504 10.5482 17.3772 11.1343 17.4838C11.3475 17.4838 11.5073 17.5903 11.6139 17.8035C11.827 18.283 12.0668 18.6293 12.3332 18.8424H12.7328V18.5227C12.6795 18.2563 12.5996 17.9899 12.493 17.7235C11.7471 16.1251 11.4807 14.7931 11.6938 13.7274C11.7471 13.3545 11.7204 13.0081 11.6139 12.6884C11.081 10.717 10.9212 8.42593 11.1343 5.81515C10.7614 5.17577 10.5749 4.03022 10.5749 2.3785L10.6548 1.89897L10.7347 1.25959C10.788 1.09975 10.9079 0.993182 11.0944 0.939902C11.2809 0.886622 11.4274 0.939902 11.5339 1.09975L11.9335 1.57928C12.4131 2.21865 12.6795 2.93795 12.7328 3.73717C12.7861 4.32327 12.8127 4.82944 12.8127 5.25569C12.7594 5.5221 12.7861 5.78851 12.8926 6.05491C13.159 6.85413 13.3988 8.26609 13.6119 10.2908C13.6652 10.8236 13.865 11.7161 14.2113 12.9682C14.5577 14.2203 14.9173 15.166 15.2903 15.8054C17.6879 15.8054 19.3929 16.1251 20.4053 16.7645C20.9381 17.0842 22.0304 17.6969 23.6821 18.6027C25.0141 19.3486 25.8133 19.8281 26.0797 20.0413C26.7724 20.4675 27.505 21.1469 28.2776 22.0793C29.0502 23.0117 29.543 23.8242 29.7562 24.5169C29.9693 25.2096 30.4488 26.6748 31.1948 28.9126C31.3013 29.3389 31.5144 29.7118 31.8341 30.0315C33.0596 31.4701 33.8055 32.9886 34.072 34.5871C34.3384 36.079 34.6048 37.2778 34.8712 38.1836C34.9245 38.45 34.9777 38.7164 35.031 38.9828L35.1109 40.0218ZM12.0135 34.9068C12.0135 35.9191 11.8003 36.9048 11.3741 37.8639L11.0544 38.5832C11.9602 38.1569 12.4131 37.8106 12.4131 37.5442C12.4131 37.5442 12.4397 37.4776 12.493 37.3444C12.5463 37.2112 12.5862 37.0513 12.6129 36.8649C12.6395 36.6784 12.6795 36.5318 12.7328 36.4253C13.1057 34.8268 13.3721 33.0419 13.532 31.0705C13.7984 28.7794 14.2246 26.8879 14.8107 25.396C15.1304 24.6501 15.7698 24.2105 16.7289 24.0773C17.6879 23.9441 18.4872 23.9441 19.1265 24.0773C19.7659 24.2105 20.3786 24.3571 20.9647 24.5169C22.4033 23.771 23.9219 22.3856 25.5203 20.361C25.2006 20.1478 24.4813 19.7482 23.3624 19.1621C21.764 18.2563 20.6717 17.617 20.0856 17.244C19.2864 16.7645 17.8478 16.4981 15.7698 16.4448C15.8764 16.5513 15.8764 16.6712 15.7698 16.8044C15.6632 16.9376 15.53 16.9509 15.3702 16.8444C15.2104 16.7378 15.0505 16.5513 14.8907 16.2849C14.4644 15.6456 14.0648 14.6465 13.6918 13.2879C13.3189 11.9292 13.0791 10.9568 12.9725 10.3707C12.8127 8.34601 12.5996 6.98733 12.3332 6.29468C12.2266 5.92171 12.1733 5.54874 12.1733 5.17577C12.2266 4.8028 12.2266 4.32327 12.1733 3.73717C12.12 3.0978 11.8803 2.5117 11.454 1.97889L11.2942 1.73912L11.2143 1.97889C11.161 2.19202 11.1343 2.3785 11.1343 2.53834C11.1343 4.03022 11.3208 5.04257 11.6938 5.57538C11.7471 5.62866 11.7737 5.68194 11.7737 5.73523C11.5606 8.34601 11.7204 10.6105 12.2532 12.5286C12.3065 12.9548 12.3065 13.3811 12.2532 13.8074C12.0934 14.7664 12.3332 15.9919 12.9725 17.4838C13.1324 17.8035 13.2389 18.1231 13.2922 18.4428L13.3721 19.1621C13.4254 19.2154 13.4121 19.282 13.3322 19.3619C13.2523 19.4419 13.1857 19.4818 13.1324 19.4818H12.2532C12.1467 19.4818 12.0668 19.4552 12.0135 19.4019C11.7471 19.1355 11.454 18.7092 11.1343 18.1231C11.081 18.0699 11.0011 18.0432 10.8946 18.0432C10.415 17.9899 9.77565 18.1231 8.97643 18.4428C7.96409 18.9224 7.32471 19.322 7.0583 19.6417C6.63205 20.2278 6.57877 21.0003 6.89846 21.9594C7.16487 22.7053 7.75096 23.2115 8.65675 23.4779C9.40268 23.691 10.0421 23.6644 10.5749 23.398C11.161 23.025 11.5606 22.5189 11.7737 21.8795C11.7737 21.7729 11.8003 21.7196 11.8536 21.7196L12.493 21.0803C12.5996 21.027 12.6928 21.0137 12.7727 21.0403C12.8527 21.0669 12.9193 21.1335 12.9725 21.2401C13.5053 22.359 13.5053 23.2914 12.9725 24.0374C12.493 24.73 12.2532 27.101 12.2532 31.1504C12.2532 31.1504 12.2532 31.1771 12.2532 31.2304C12.0934 31.8697 12.0135 33.0952 12.0135 34.9068ZM16.4891 32.669C16.7555 31.923 17.3416 30.6576 18.2474 28.8727C19.1532 27.0877 19.8991 25.7957 20.4852 24.9964C19.5794 24.73 18.7269 24.5702 17.9277 24.5169C16.5424 24.4636 15.6899 24.8366 15.3702 25.6358C14.7841 27.0211 14.3579 28.8593 14.0914 31.1504C13.9849 32.6956 13.7984 34.1608 13.532 35.5461C15.0239 33.9477 16.0096 32.9886 16.4891 32.669ZM19.4462 32.5091C20.4053 31.6033 21.7373 30.0582 23.4423 27.8736C22.5365 27.7671 21.391 27.3941 20.0057 26.7547C18.4605 29.4721 17.4748 31.55 17.0486 32.9886C16.9953 33.0419 16.942 33.0952 16.8887 33.1485C16.4625 33.3616 15.4768 34.294 13.9316 35.9458C13.7185 36.1589 13.5853 36.3187 13.532 36.4253C13.4787 36.4786 13.3988 36.5585 13.2922 36.6651C13.1857 37.038 13.0791 37.3844 12.9725 37.704C12.9193 38.1303 12.3065 38.6098 11.1343 39.1426C11.081 39.1959 11.0011 39.2226 10.8946 39.2226C10.788 39.2226 10.6814 39.1693 10.5749 39.0627C10.415 38.9029 10.3884 38.6897 10.495 38.4233C9.69573 38.7963 8.81659 39.2226 7.85752 39.7021C7.80424 39.7021 7.7776 39.7287 7.7776 39.782C7.7776 39.8353 7.80424 39.8619 7.85752 39.8619C10.1486 39.8619 11.6405 39.8087 12.3332 39.7021C12.5996 39.6488 12.7328 39.5156 12.7328 39.3025C12.9459 38.6098 13.5053 37.9438 14.4111 37.3044C14.4111 37.2511 14.4511 37.2112 14.531 37.1845C14.6109 37.1579 14.6775 37.1179 14.7308 37.0647C16.0629 36.2122 17.0219 35.5062 17.608 34.9467C18.1941 34.3873 18.8068 33.5747 19.4462 32.5091ZM25.9199 25.7157C26.0265 25.7157 26.133 25.769 26.2396 25.8756C26.2929 26.0354 26.3994 26.2219 26.5593 26.435C27.9446 26.0621 28.8504 25.5559 29.2766 24.9165C29.2766 24.8099 29.25 24.73 29.1967 24.6767C29.0369 24.0907 28.6239 23.3847 27.9579 22.5588C27.2919 21.733 26.6392 21.1069 25.9998 20.6806C25.5736 21.2135 25.1207 21.7463 24.6412 22.2791C23.3624 23.6111 22.1902 24.5435 21.1246 25.0764C20.9115 25.3428 20.6451 25.7424 20.3254 26.2752C21.9238 26.9678 23.096 27.3142 23.8419 27.3142C24.2682 26.7814 24.5879 26.3551 24.801 26.0354C24.8543 25.9821 24.9342 25.9555 25.0408 25.9555L25.9199 25.7157ZM33.6723 41.1407C33.9388 41.1407 34.1519 41.0341 34.3117 40.821C34.4716 40.6079 34.5515 40.3681 34.5515 40.1017L34.4716 39.0627C34.4183 38.7963 34.365 38.5565 34.3117 38.3434C34.0453 37.4376 33.7789 36.2388 33.5125 34.7469C33.2461 33.255 32.5268 31.8164 31.3546 30.4311C31.0349 30.0582 30.7951 29.6053 30.6353 29.0725C30.1558 27.6339 29.7828 26.4617 29.5164 25.5559C28.9303 26.142 28.0512 26.6215 26.879 26.9945C28.211 29.1257 29.3566 30.7508 30.3156 31.8697C30.582 32.1361 30.7419 32.4558 30.7951 32.8288C31.0616 33.8411 31.7809 35.3597 32.953 37.3844C33.1662 37.7573 33.2727 38.1569 33.2727 38.5832V38.9828C33.2727 39.8353 33.0862 40.6079 32.7133 41.3005L33.6723 41.1407Z" fill="white"/>
</g>
<defs>
<clipPath id="clip0_70_486">
<rect width="41.13" height="41" fill="white" transform="matrix(1 0 0 -1 0.0800781 41.9399)"/>
</clipPath>
</defs>
</svg>
