<svg width="40" height="41" viewBox="0 0 40 41" fill="none" xmlns="http://www.w3.org/2000/svg">
<g id="Icon" clip-path="url(#clip0_70_498)">
<path id="Vector" d="M30.6822 9.68112C33.5932 12.5921 34.8667 15.8929 34.5029 19.5837C34.4509 19.7396 34.4249 19.9475 34.4249 20.2074C34.4249 22.4427 33.7231 24.5999 32.3196 26.6792C31.6439 27.7708 30.9421 28.6285 30.2144 29.2523C29.3307 29.98 28.6809 30.7597 28.2651 31.5915C27.7972 32.4751 26.4197 34.1905 24.1325 36.7377L26.2378 37.8293C26.4977 37.9852 26.6016 38.1931 26.5497 38.4531C26.4977 38.609 26.4197 38.713 26.3157 38.7649C26.5237 38.8689 26.7056 38.9729 26.8615 39.0768C27.2254 39.3367 27.3814 39.6486 27.3294 40.0125C27.3294 40.2204 27.2514 40.3504 27.0955 40.4024C26.8356 40.6623 26.3677 40.7922 25.692 40.7922C24.3924 40.7922 22.9109 40.5063 21.2475 39.9345C20.8317 39.8306 20.5977 39.5707 20.5458 39.1548C20.4938 38.583 20.5458 38.0632 20.7017 37.5954C20.8057 37.3354 20.9876 36.8416 21.2475 36.1139C21.9233 34.3465 22.3391 33.1509 22.4951 32.5271C22.8589 31.1756 23.8466 29.4602 25.458 27.3809C25.562 26.9651 25.8739 26.0034 26.3937 24.4959C26.8615 23.1964 27.1474 22.3127 27.2514 21.8449C26.8875 21.429 26.6926 20.9222 26.6666 20.3244C26.6406 19.7266 26.7576 19.1158 27.0175 18.492C27.2774 17.8683 27.4983 17.4004 27.6803 17.0885C27.8622 16.7766 28.0311 16.5167 28.1871 16.3088C28.2391 15.9449 27.5113 15.2432 26.0038 14.2035C24.8602 13.4758 23.6127 12.748 22.2612 12.0203C22.2092 12.0203 22.1572 11.9943 22.1052 11.9423C21.7413 12.878 21.1955 13.4498 20.4678 13.6577C20.3638 13.7097 20.2858 13.7357 20.2339 13.7357C20.7537 14.8793 21.0396 15.867 21.0916 16.6987C21.1435 17.5824 20.9356 19.0378 20.4678 21.0651C20.4678 21.1691 20.4158 21.2471 20.3118 21.2991C20.2599 21.2991 20.2339 21.2991 20.2339 21.2991C20.1299 21.2991 20.0519 21.2471 19.9999 21.1431C19.1682 19.7396 18.7524 18.3101 18.7524 16.8546C18.7524 15.659 18.9863 14.6454 19.4541 13.8137C19.4022 13.8137 19.3502 13.8137 19.2982 13.8137C18.6224 13.8137 17.9986 13.6317 17.4268 13.2679C16.6471 12.8 16.1793 12.2022 16.0233 11.4745C15.9194 10.8507 16.1533 9.88905 16.7251 8.5895C16.8291 8.38158 16.959 8.14766 17.115 7.88775C16.8031 7.52388 16.4132 7.31595 15.9454 7.26397C14.9057 7.05604 13.6842 6.62719 12.2806 5.97742C10.8771 5.32764 9.86349 4.82082 9.23971 4.45695C8.77188 4.40497 8.17409 4.17105 7.44634 3.7552C7.34238 3.70321 7.21242 3.67722 7.05648 3.67722C6.64062 3.62524 6.27675 3.44331 5.96486 3.13141L5.80891 2.97547C5.44504 2.66358 5.32808 2.3127 5.45804 1.92284C5.58799 1.53297 5.8609 1.28606 6.27675 1.18209L8.07012 0.870204C8.17409 0.870204 8.27805 0.870204 8.38201 0.870204C8.90183 0.870204 9.34368 1.02615 9.70755 1.33804V1.41601C9.86349 1.51998 10.0194 1.59795 10.1754 1.64993C13.9181 2.42966 16.2573 3.15741 17.1929 3.83317C17.4009 3.93713 17.5308 4.0151 17.5828 4.06708L22.9629 7.65383C24.5224 7.60185 26.1078 7.4459 27.7192 7.18599C27.9272 7.13401 28.1091 7.10802 28.2651 7.10802C29.0448 7.10802 29.6426 7.38093 30.0584 7.92673C30.4743 8.47255 30.6822 9.05734 30.6822 9.68112ZM20.1559 20.2854C20.4678 18.57 20.6237 17.3744 20.6237 16.6987C20.5717 16.0229 20.3118 15.1912 19.844 14.2035C19.4801 14.9313 19.2982 15.815 19.2982 16.8546C19.2982 17.8942 19.5841 19.0378 20.1559 20.2854ZM16.0233 6.71816C16.5432 6.82212 16.985 7.05604 17.3489 7.41991C17.4009 7.31595 17.4528 7.23798 17.5048 7.18599C17.2449 6.97807 16.985 6.84811 16.7251 6.79613C15.1656 6.43226 12.9824 5.49659 10.1754 3.98911C9.81151 3.78118 9.42165 3.70321 9.00579 3.7552C8.90183 3.7552 8.79787 3.7552 8.6939 3.7552C8.95381 3.85916 9.16174 3.91114 9.31769 3.91114C9.36967 3.91114 9.42165 3.93713 9.47363 3.98911C9.94147 4.301 10.8901 4.79483 12.3196 5.4706C13.7491 6.14636 14.9837 6.56221 16.0233 6.71816ZM20.3118 13.1899C20.9876 12.982 21.4554 12.4621 21.7153 11.6304C20.8317 10.9547 19.5581 9.60315 17.8947 7.57586C16.855 9.34324 16.4132 10.5908 16.5691 11.3185C16.6731 11.9423 17.037 12.4621 17.6608 12.878C18.4405 13.3458 19.3242 13.4498 20.3118 13.1899ZM18.2066 7.18599C20.2858 9.68112 21.7153 11.1626 22.4951 11.6304C23.0669 11.8903 23.6647 12.2022 24.2884 12.5661C25.2241 12.2022 25.9259 11.5525 26.3937 10.6168C26.8615 9.68112 26.3937 8.82342 24.9902 8.04369C24.5743 8.04369 24.1845 8.06969 23.8206 8.12167C23.9766 8.17365 24.1065 8.19964 24.2105 8.19964C24.3664 8.14766 24.4704 8.19964 24.5224 8.35559C24.5743 8.51153 24.4964 8.61549 24.2884 8.66748C24.2365 8.66748 24.1845 8.66748 24.1325 8.66748C23.8206 8.66748 23.4567 8.56351 23.0409 8.35559L22.4951 7.96572L17.3489 4.53492C17.2449 4.48294 17.089 4.37898 16.881 4.22303C16.0493 3.59925 13.7881 2.89749 10.0974 2.11777C9.8375 2.06579 9.60359 1.93583 9.39566 1.7279H9.31769C9.05778 1.51998 8.74589 1.41601 8.38201 1.41601C8.33003 1.41601 8.25206 1.41601 8.14809 1.41601L6.35472 1.7279C6.1468 1.7279 6.01684 1.83187 5.96486 2.03979C5.91288 2.24772 5.96486 2.42966 6.1208 2.5856L6.35472 2.81952C6.56265 3.02745 6.82256 3.15741 7.13445 3.20938C7.5503 3.26137 7.94017 3.28736 8.30404 3.28736C8.56395 3.28736 8.77188 3.26137 8.92782 3.20938C9.44764 3.15741 9.94147 3.26137 10.4093 3.52128C13.1643 4.97677 15.2956 5.88645 16.8031 6.25032C17.3749 6.40627 17.8427 6.71816 18.2066 7.18599ZM28.6549 16.5427C28.2391 17.0625 27.9012 17.6863 27.6413 18.4141C27.6933 18.466 27.7192 18.518 27.7192 18.57C27.7712 18.674 27.8492 18.7909 27.9532 18.9209C28.0571 19.0508 28.304 19.2588 28.6939 19.5447C29.0838 19.8306 29.4996 20.0515 29.9415 20.2074C30.3833 20.3634 30.9551 20.4154 31.6569 20.3634C32.3586 20.3114 33.1254 20.1035 33.9571 19.7396C33.9571 19.6876 33.9571 19.6096 33.9571 19.5057C34.3209 16.0749 33.2033 13.008 30.6042 10.3049C30.5523 10.4089 30.4743 10.5128 30.3703 10.6168C30.3183 10.6688 30.2664 10.6948 30.2144 10.6948C30.1624 10.6948 30.1104 10.6688 30.0584 10.6168C29.9025 10.5128 29.8765 10.4089 29.9805 10.3049C30.1364 10.149 30.2144 9.98002 30.2144 9.79808C30.2144 9.61614 30.1884 9.39522 30.1364 9.13531C30.0844 8.8754 29.8895 8.56351 29.5516 8.19964C29.2137 7.83577 28.7849 7.65383 28.2651 7.65383C28.1091 7.65383 27.9532 7.65383 27.7972 7.65383C27.1215 7.75779 26.4457 7.86176 25.7699 7.96572C27.0175 8.84941 27.3814 9.81108 26.8615 10.8507C26.3937 11.7864 25.7179 12.4621 24.8343 12.878C25.3541 13.2419 25.8219 13.5538 26.2378 13.8137C28.1091 15.0612 28.9148 15.9709 28.6549 16.5427ZM27.4074 19.0378C27.1474 19.8176 27.1215 20.4414 27.3294 20.9092C27.3814 20.4414 27.5373 19.9475 27.7972 19.4277C27.6413 19.2718 27.5113 19.1418 27.4074 19.0378ZM25.9259 27.6928C25.562 28.1087 25.2501 28.5245 24.9902 28.9404L25.3801 29.4082C25.692 29.0443 25.9779 28.7584 26.2378 28.5505C27.1734 25.8475 27.8752 24.0021 28.343 23.0145C28.0831 22.8065 27.8492 22.5726 27.6413 22.3127C27.5373 22.7805 27.2774 23.5603 26.8615 24.6519C26.3417 26.2113 26.0298 27.173 25.9259 27.5369C25.9259 27.5889 25.9259 27.6408 25.9259 27.6928ZM23.0409 32.5271C23.6647 31.4875 24.3144 30.5778 24.9902 29.7981L24.6783 29.3302C23.8466 30.5778 23.3008 31.6434 23.0409 32.5271ZM26.0038 38.2971L23.8206 37.1275L23.4307 37.5954L25.3021 38.3751C25.4061 38.4271 25.536 38.4531 25.692 38.4531L26.0038 38.3751C26.0038 38.3231 26.0038 38.2971 26.0038 38.2971ZM23.5867 36.6597C24.7303 35.3601 25.7699 34.1386 26.7056 32.995L24.6783 30.9677C23.7426 32.1633 22.9109 33.5408 22.1832 35.1002C22.0792 35.3601 21.9233 35.75 21.7153 36.2698C21.4554 36.9976 21.2735 37.5174 21.1695 37.8293C21.0136 38.1931 20.9876 38.609 21.0916 39.0768C21.0916 39.2848 21.1955 39.4147 21.4035 39.4667C23.0149 39.9865 24.4444 40.2464 25.692 40.2464C26.2638 40.2464 26.6276 40.1685 26.7836 40.0125H26.8615C26.8615 39.9605 26.8615 39.9085 26.8615 39.8566C26.8096 39.7006 26.7056 39.5967 26.5497 39.5447C26.2378 39.2848 25.8479 39.0768 25.3801 38.9209L22.8849 37.9072C22.833 37.9072 22.794 37.8683 22.768 37.7903C22.742 37.7123 22.755 37.6213 22.807 37.5174L23.5867 36.6597ZM29.9025 28.8624C30.1624 28.6025 30.5133 28.2256 30.9551 27.7318C31.397 27.238 31.9948 26.2503 32.7485 24.7688C33.5022 23.2874 33.9051 21.7929 33.9571 20.2854C32.9694 20.7013 32.0597 20.9092 31.228 20.9092C30.3963 20.9092 29.6426 20.7273 28.9668 20.3634C28.7069 20.2074 28.447 20.0255 28.1871 19.8176C27.5633 21.1171 27.7712 22.0788 28.8109 22.7026C28.9668 22.8065 28.9928 22.9105 28.8888 23.0145C28.473 23.8462 27.7452 25.7695 26.7056 28.7844C26.7056 28.8364 26.6796 28.8624 26.6276 28.8624C26.1598 29.2263 25.614 29.7981 24.9902 30.5778L27.0175 32.6051C27.3814 32.0333 27.6413 31.6174 27.7972 31.3575C28.2651 30.4219 28.9668 29.5902 29.9025 28.8624Z" fill="white"/>
</g>
<defs>
<clipPath id="clip0_70_498">
<rect width="40" height="40" fill="white" transform="matrix(1 0 0 -1 0 40.8701)"/>
</clipPath>
</defs>
</svg>
