<svg width="39" height="39" viewBox="0 0 39 39" fill="none" xmlns="http://www.w3.org/2000/svg">
<g id="Icon" clip-path="url(#clip0_66_433)">
<path id="Vector" d="M31.9496 33.1863C32.3958 33.682 32.5941 34.1282 32.5445 34.5248C32.5445 34.9215 32.495 35.2685 32.3958 35.5659C31.9496 36.7062 31.1068 37.2763 29.8674 37.2763L13.656 37.5738C13.3089 37.9704 12.8628 38.1687 12.3174 38.1687C12.0695 38.1687 11.8216 38.1191 11.5738 38.02C11.3755 37.9208 11.2019 37.7721 11.0532 37.5738L9.78902 37.6481H8.74792C8.45046 37.6481 8.25215 37.487 8.153 37.1648C8.05385 36.8425 8.12821 36.5823 8.3761 36.384C9.46677 35.5412 10.3839 34.9958 11.1276 34.7479C11.1276 34.6488 11.1276 34.5496 11.1276 34.4505C10.9293 32.7649 10.9541 28.8979 11.2019 22.8496C11.2515 22.7009 11.2515 22.5274 11.2019 22.3291C10.8053 20.1973 10.607 18.363 10.607 16.8261C10.607 15.2892 10.7805 13.4301 11.1276 11.2488C11.1276 11.1 11.1524 10.9265 11.2019 10.7282C11.3011 10.282 11.2763 9.83584 11.1276 9.38965C10.731 9.34008 10.3344 9.24092 9.93775 9.09219C10.3839 10.1829 10.6318 11.0752 10.6814 11.7693C10.7805 12.7608 10.5822 14.3721 10.0865 16.603C10.0369 16.7022 9.93775 16.7765 9.78902 16.8261C9.78902 16.8261 9.76423 16.8261 9.71466 16.8261C9.6155 16.8261 9.51635 16.7765 9.4172 16.6774C8.52482 15.1405 8.07864 13.5788 8.07864 11.9924C8.07864 10.7034 8.32652 9.58796 8.82228 8.64601C7.48372 7.95194 6.64092 7.03478 6.29389 5.89452C5.8477 4.2585 6.46741 2.69685 8.153 1.20956C9.54114 -0.0298462 11.2019 -0.252941 13.1354 0.540279C14.3253 0.986465 15.5151 1.77969 16.7049 2.91994C17.2007 3.41571 17.2007 3.93626 16.7049 4.4816L15.8869 5.29961C15.5894 5.64664 15.4655 6.01846 15.5151 6.41507L15.7382 9.38965L20.2 13.8515C21.4395 14.843 22.0592 15.8841 22.0592 16.9748C22.1087 17.6193 21.8609 18.2142 21.3155 18.7596C21.3651 19.1066 21.2659 19.7759 21.0181 20.7674C20.4727 22.8 20.2 24.5848 20.2 26.1217C20.3984 26.1712 20.8445 26.2704 21.5386 26.4191C28.1818 28.0056 31.7761 29.6416 32.3215 31.3272C32.5198 31.9221 32.3958 32.5418 31.9496 33.1863ZM9.64029 15.4875C9.93775 13.7524 10.0617 12.5377 10.0121 11.8437C10.0121 11.1496 9.76423 10.282 9.26847 9.24092C8.92144 10.0341 8.74792 10.9513 8.74792 11.9924C8.74792 13.0831 9.04538 14.2481 9.64029 15.4875ZM21.3899 27.0884C20.6958 26.8901 20.2248 26.7661 19.977 26.7166C19.7786 26.9645 19.5308 27.1875 19.2333 27.3859C21.8113 27.7329 24.538 28.65 27.4134 30.1373C29.1486 31.0297 30.4871 31.8973 31.4291 32.7401C31.7265 32.2939 31.8257 31.8725 31.7265 31.4759C31.2308 30.0382 27.7852 28.5757 21.3899 27.0884ZM19.7539 14.3721V14.2977L19.2333 13.7772C19.1837 13.8267 19.1094 13.8763 19.0102 13.9259C18.8615 13.9755 18.688 14.0002 18.4897 14.0002C18.0435 14.0002 17.4486 13.8019 16.7049 13.4053C17.0024 14.3969 16.8784 15.3388 16.3331 16.2312C16.1348 16.5782 15.9117 16.8757 15.6638 17.1236C15.3168 19.5032 14.8458 21.6846 14.2509 23.6676C14.2013 23.8164 14.1765 23.9899 14.1765 24.1882C14.2757 24.8822 14.3005 26.0473 14.2509 27.6833C15.7382 27.7825 16.9776 27.6337 17.9691 27.2371C18.7128 26.9892 19.2333 26.667 19.5308 26.2704C19.5308 24.6344 19.8034 22.7505 20.3488 20.6187C20.5967 19.5776 20.6958 18.9331 20.6462 18.6852C20.6462 18.5861 20.671 18.4869 20.7206 18.3878C21.2164 17.9416 21.4642 17.4706 21.4642 16.9748C21.4147 16.0825 20.8445 15.2149 19.7539 14.3721ZM23.5464 32.4426C21.3651 32.6905 18.8367 33.2854 15.9613 34.2274C15.8621 34.277 15.763 34.2522 15.6638 34.153L15.1433 33.7068C14.7467 33.3598 14.3748 33.3598 14.0278 33.7068L13.7303 34.0787C13.7303 34.1778 13.7055 34.277 13.656 34.3761L14.3253 35.7147C14.4244 36.0121 14.3996 36.3096 14.2509 36.607L14.1022 36.9045L25.0337 36.6814C24.3397 35.8386 23.8439 34.4257 23.5464 32.4426ZM6.96317 5.67143C7.21105 6.46465 7.7316 7.13393 8.52482 7.67927C9.31805 8.22461 10.2848 8.59643 11.425 8.79474C11.5242 8.79474 11.5986 8.8691 11.6481 9.01783C11.896 9.76147 11.9704 10.3812 11.8712 10.8769C11.8216 11.1248 11.7721 11.3231 11.7225 11.4719C11.7225 11.4719 11.7225 11.4966 11.7225 11.5462C12.6644 11.0505 13.6064 10.9513 14.5483 11.2488C15.1433 11.4471 15.639 11.7941 16.0356 12.2899C17.4238 13.1822 18.3161 13.5293 18.7128 13.331L15.2176 9.76147C15.1681 9.7119 15.1433 9.63753 15.1433 9.53838L14.8458 6.48944C14.7962 5.84494 14.9945 5.29961 15.4407 4.85342L16.2587 3.96104C16.457 3.76274 16.457 3.56443 16.2587 3.36613C15.8125 2.96952 15.3416 2.5853 14.8458 2.21348C14.35 1.84166 13.7303 1.48223 12.9867 1.1352C12.243 0.788162 11.487 0.651825 10.7186 0.726192C9.95014 0.800556 9.24368 1.1352 8.59919 1.73011C7.1119 3.0191 6.56656 4.33287 6.96317 5.67143ZM9.78902 36.9789L10.7558 36.9045C10.6566 36.6566 10.6566 36.4087 10.7558 36.1609C10.8053 35.9626 10.8797 35.7395 10.9789 35.4916C10.3344 35.789 9.59072 36.26 8.74792 36.9045V36.9789H9.78902ZM11.8712 37.4251C12.4661 37.7225 12.9371 37.5738 13.2842 36.9789L13.656 36.3096C13.7055 36.2104 13.7055 36.1113 13.656 36.0121L13.0611 34.5248C13.0115 34.4753 12.9867 34.4257 12.9867 34.3761C13.5816 29.1706 13.7551 25.8242 13.5072 24.3369C13.4577 23.9899 13.4825 23.6924 13.5816 23.4445C13.9782 22.1556 14.3872 20.4452 14.8086 18.3134C15.23 16.1816 15.3664 14.7191 15.2176 13.9259C15.1681 13.678 15.2548 13.5417 15.4779 13.5169C15.701 13.4921 15.8373 13.5788 15.8869 13.7772C15.9365 14.2233 15.9365 14.8926 15.8869 15.785C16.2339 15.0909 16.2835 14.3473 16.0356 13.5541C15.7382 12.7113 15.1681 12.1659 14.3253 11.918C13.4329 11.6206 12.5157 11.7693 11.5738 12.3642C11.3755 14.149 11.2763 15.6363 11.2763 16.8261C11.2763 18.3134 11.4746 20.1229 11.8712 22.2547C11.9208 22.453 11.9208 22.6761 11.8712 22.924C11.6233 28.9227 11.5986 32.7401 11.7969 34.3761C11.8464 34.8223 11.7969 35.2437 11.6481 35.6403C11.549 35.8386 11.4746 36.0617 11.425 36.3096C11.2267 36.8054 11.3755 37.1772 11.8712 37.4251ZM31.7265 35.3429C31.8257 35.095 31.8753 34.8223 31.8753 34.5248C31.9248 34.1282 31.5282 33.5829 30.6854 32.8888C29.8426 32.1948 28.6528 31.4759 27.1159 30.7323C23.7943 28.9971 20.795 28.0551 18.1178 27.9064C17.2255 28.2534 16.1844 28.427 14.9945 28.427C14.7962 28.427 14.5236 28.4022 14.1765 28.3526C14.1269 29.7407 14.003 31.3272 13.8047 33.1119C14.4492 32.6657 15.0441 32.6905 15.5894 33.1863L15.9613 33.5581C17.5477 33.0623 19.1094 32.6409 20.6462 32.2939C24.067 31.5007 26.174 31.4511 26.9672 32.1452C27.1159 32.2939 27.1159 32.455 26.9672 32.6285C26.8185 32.8021 26.6698 32.8145 26.521 32.6657C26.174 32.3683 25.4056 32.2691 24.2157 32.3683C24.6123 34.8967 25.2073 36.3344 26.0005 36.6814L29.8674 36.607C30.8094 36.607 31.4291 36.1856 31.7265 35.3429Z" fill="#22B6F2"/>
</g>
<defs>
<clipPath id="clip0_66_433">
<rect width="38.149" height="38.149" fill="white" transform="matrix(1 0 0 -1 0.306152 38.2428)"/>
</clipPath>
</defs>
</svg>
