<svg width="56" height="56" viewBox="0 0 56 56" fill="none" xmlns="http://www.w3.org/2000/svg">
<g id="Icon" clip-path="url(#clip0_70_492)">
<path id="Vector" d="M54.7487 42.5577C54.9629 42.5577 55.07 42.6469 55.07 42.8254C55.07 43.0039 54.9986 43.1289 54.8558 43.2003C52.9989 44.3428 51.1063 44.9141 49.178 44.9141C47.8924 44.9141 46.714 44.6998 45.6427 44.2714C45.4284 44.2714 45.2142 44.2714 44.9999 44.2714C43.5715 44.2714 42.3217 43.9501 41.2504 43.3074L38.1437 43.7359C37.7866 44.3071 37.0367 44.6284 35.894 44.6998C35.7511 44.6998 35.5726 44.6998 35.3583 44.6998C34.5727 44.6998 32.9301 44.557 30.4304 44.2714C28.8592 44.1286 27.895 44.0572 27.5379 44.0572C27.1808 44.0572 26.1809 44.1643 24.5383 44.3785C22.3957 44.5927 21.003 44.6998 20.3603 44.6998C17.8606 44.6998 16.1108 43.3788 15.111 40.7368C14.8967 40.3084 14.861 39.8085 15.0038 39.2373C13.7183 37.5949 12.6113 35.7027 11.6828 33.5605C11.3257 35.06 10.5401 37.0237 9.32599 39.4515C9.04032 40.1655 8.86177 40.9153 8.79035 41.7008L8.68322 43.0932C8.6118 43.8073 8.219 44.1643 7.5048 44.1643H1.1842C0.75568 44.1643 0.470003 43.9501 0.327165 43.5216C0.0414876 42.9504 0.184326 42.5577 0.75568 42.3434C3.82671 40.9867 5.50506 40.0941 5.79074 39.6657C6.21926 39.0945 6.86203 35.3456 7.71906 28.4192C7.8619 27.5623 8.219 26.8126 8.79035 26.1699C9.57596 25.2416 10.5401 24.9917 11.6828 25.4202C13.1112 26.0628 15.5038 28.562 18.8605 32.9178L20.3603 31.3112L23.8955 26.9197C24.324 26.3484 24.6454 25.7058 24.8597 24.9917C24.9311 24.7061 25.0025 24.3491 25.0739 23.9206C25.1454 22.7781 25.5739 21.6713 26.3595 20.6002C26.7166 20.029 27.5379 19.1721 28.8235 18.0296C29.8233 17.1013 30.5018 16.4587 30.8589 16.1016C31.3588 15.3876 32.2873 13.8166 33.6443 11.3888C33.7157 11.246 33.8228 11.1032 33.9656 10.9604C34.537 10.5319 35.1084 10.4962 35.6797 10.8533L39.3221 13.3168C39.6078 13.2454 39.8577 13.2097 40.072 13.2097C40.6433 13.3525 41.0362 13.7095 41.2504 14.2808L41.3575 14.6021C41.5718 15.3876 41.5718 16.173 41.3575 16.9585L40.7148 19.3149C40.072 22.5996 39.6792 24.7775 39.5364 25.8486C39.3935 26.5627 39.1435 27.4909 38.7865 28.6334C38.5722 29.3475 38.4651 30.0616 38.4651 30.7756L38.6793 39.3444L40.1791 38.9159C40.1077 38.1305 40.1077 37.3807 40.1791 36.6666C40.1791 35.9526 40.5719 35.5241 41.3575 35.3813C44.1429 34.8101 46.3569 35.2028 47.9995 36.5595C49.2851 37.5592 49.9279 38.7017 49.9279 39.987C49.9279 40.5583 49.7493 41.1295 49.3922 41.7008C50.6778 41.7722 52.4632 42.0578 54.7487 42.5577ZM29.3591 18.5652C28.7163 19.1364 28.2164 19.5648 27.8593 19.8505C29.1448 20.2789 30.109 20.8502 30.7518 21.5642C32.5373 18.0653 33.7871 16.1373 34.5013 15.7803C35.4297 15.2091 36.5725 14.9591 37.9294 15.0305L38.7865 13.8523L35.3583 11.4959C35.1441 11.4245 34.9655 11.3888 34.8227 11.3888C34.6084 11.4602 34.4299 11.5673 34.287 11.7102C32.9301 14.2094 31.9659 15.816 31.3946 16.5301C31.0375 16.9585 30.359 17.6369 29.3591 18.5652ZM34.1799 35.3813C34.7513 31.5968 35.1084 29.4189 35.2512 28.8477C35.3226 28.2764 35.9297 26.0271 37.0724 22.0998C37.5009 20.8144 37.7509 19.9933 37.8223 19.6362C37.4652 18.7794 37.3938 17.4941 37.608 15.7803C36.4653 15.7803 35.5369 15.9945 34.8227 16.423C34.1799 16.78 32.573 19.6362 30.0019 24.9917C29.4305 26.0628 29.0734 26.7412 28.9306 27.0268C28.6449 27.8837 27.3237 31.2755 24.9668 37.2022C27.895 36.988 29.7876 36.8809 30.6447 36.8809C31.4303 35.7384 32.6087 35.2385 34.1799 35.3813ZM8.68322 39.1302C9.54025 37.345 10.183 35.7741 10.6115 34.4173C10.5401 34.4173 10.5044 34.4173 10.5044 34.4173C9.64738 34.4173 8.75464 34.096 7.82619 33.4534C7.25484 37.3807 6.79061 39.5943 6.43351 40.0941C6.005 40.6654 4.21952 41.6294 1.07707 42.9861C1.00565 43.0575 0.969938 43.1468 0.969938 43.2539C0.969938 43.361 1.04136 43.4145 1.1842 43.4145H7.5048C7.71906 43.4145 7.8619 43.2717 7.93332 42.9861L8.04045 41.5937C8.11187 40.7368 8.32612 39.9156 8.68322 39.1302ZM11.8971 31.9538C12.6827 34.1674 13.7897 36.2739 15.2181 38.2733C15.6466 36.8452 16.6822 35.2385 18.3248 33.4534C15.0395 29.0976 12.7184 26.6698 11.3614 26.1699C10.5758 25.8129 9.89735 25.9914 9.32599 26.7055C8.89748 27.2053 8.6118 27.8123 8.46896 28.5263C8.32612 29.9544 8.14758 31.3112 7.93332 32.5965C9.00461 33.4534 9.96877 33.8104 10.8258 33.6676C11.0401 33.0249 11.1472 32.4894 11.1472 32.0609C11.1472 31.8467 11.2543 31.7218 11.4686 31.6861C11.6828 31.6503 11.8257 31.7396 11.8971 31.9538ZM15.7537 40.5226C16.6822 42.8076 18.2177 43.9501 20.3603 43.9501C20.7888 43.9501 21.3959 43.9144 22.1815 43.843C23.8955 42.4148 24.9668 40.4512 25.3953 37.952C25.2525 37.952 25.0025 37.952 24.6454 37.952L24.1098 39.987C24.0384 40.1298 23.8955 40.2012 23.6813 40.2012C23.6813 40.2012 23.6456 40.2012 23.5741 40.2012C23.3599 40.1298 23.2885 39.987 23.3599 39.7728L24.0027 37.7377C24.0741 37.4521 24.1455 37.2379 24.2169 37.0951C26.6452 31.0255 28.0021 27.5623 28.2878 26.7055C28.4307 26.4198 28.752 25.7415 29.252 24.6704C29.6805 23.7421 30.0733 22.9566 30.4304 22.314C29.7876 21.5285 28.752 20.9216 27.3237 20.4931C27.1808 20.7073 27.038 20.8859 26.8951 21.0287C26.2524 21.9569 25.8953 22.9566 25.8238 24.0277C25.7524 24.5276 25.681 24.8846 25.6096 25.0988C25.3953 25.9557 25.0025 26.7055 24.4312 27.3481L21.2173 31.4183C20.4317 32.3466 19.9675 32.8821 19.8246 33.0249C18.9676 33.8818 18.2177 34.7387 17.5749 35.5955C15.9323 37.6663 15.3252 39.3087 15.7537 40.5226ZM27.5379 43.3074C27.895 43.3074 28.8949 43.3788 30.5375 43.5216C31.1803 43.593 31.6445 43.6645 31.9302 43.7359C31.4303 42.8076 31.2874 41.915 31.5017 41.0581C31.7159 39.987 32.4658 39.0945 33.7514 38.3804C33.8228 37.5949 33.9299 36.8452 34.0728 36.1311C32.7872 35.9883 31.8231 36.4167 31.1803 37.4164C31.1089 37.5592 31.0017 37.6306 30.8589 37.6306C30.359 37.6306 28.7877 37.702 26.1452 37.8448C25.8596 40.2012 24.9668 42.1649 23.467 43.7359C23.6813 43.6645 24.0027 43.6287 24.4312 43.6287C26.0738 43.4145 27.1094 43.3074 27.5379 43.3074ZM35.7868 43.9501C36.0725 43.9501 36.3225 43.9144 36.5367 43.843C37.3938 43.4145 37.858 42.0935 37.9294 39.8799L37.7152 30.7756C37.7152 29.9902 37.8223 29.2047 38.0365 28.4192C38.3936 27.3481 38.6436 26.4555 38.7865 25.7415C38.9293 24.6704 39.3221 22.4568 39.9649 19.1007V18.9936L40.6076 16.7443C40.7505 16.1016 40.7505 15.459 40.6076 14.8163L40.5005 14.3879C40.4291 14.1737 40.2505 14.0309 39.9649 13.9594C39.822 13.9594 39.6435 14.0309 39.4292 14.1737C39.4292 14.2451 39.3935 14.2808 39.3221 14.2808L38.4651 15.5661C38.108 17.3512 38.1437 18.6366 38.5722 19.422C38.5722 19.4934 38.5722 19.6005 38.5722 19.7434C38.5008 20.029 38.2508 20.8859 37.8223 22.314C36.6796 26.1699 36.0725 28.4192 36.0011 29.0619C35.7868 29.7759 35.1441 33.6676 34.0728 40.7368C34.0728 40.951 33.9478 41.0403 33.6978 41.0046C33.4479 40.9689 33.3229 40.8439 33.3229 40.6297C33.3229 40.5583 33.3407 40.4869 33.3764 40.4155C33.4121 40.3441 33.4479 40.2012 33.4836 39.987C33.5193 39.7728 33.5371 39.5586 33.5371 39.3444C32.8229 39.9156 32.3944 40.5583 32.2516 41.2723C32.0373 42.0578 32.2516 42.9147 32.8944 43.843C34.3227 43.9858 35.2869 44.0215 35.7868 43.9501ZM41.5718 42.5577C42.4288 43.2003 43.5715 43.5216 44.9999 43.5216C46.0712 43.5216 47.0354 43.1468 47.8924 42.397C48.7494 41.6472 49.178 40.8439 49.178 39.987C49.178 38.9873 48.6423 38.0591 47.571 37.2022C46.0712 35.9169 44.0358 35.5598 41.4647 36.1311C41.1076 36.2025 40.929 36.4167 40.929 36.7737C40.8576 37.5592 40.8576 38.3447 40.929 39.1302C40.929 39.3444 40.8576 39.4872 40.7148 39.5586L38.6793 40.0941C38.6079 41.2366 38.4294 42.2006 38.1437 42.9861L41.3575 42.5577C41.429 42.4862 41.5004 42.4862 41.5718 42.5577ZM49.178 44.1643C50.5349 44.1643 51.999 43.8073 53.5702 43.0932C51.3562 42.6648 49.8207 42.4505 48.9637 42.4505C48.9637 42.4505 48.928 42.4505 48.8566 42.4505C48.3566 43.0932 47.7139 43.593 46.9282 43.9501C47.6424 44.0929 48.3923 44.1643 49.178 44.1643Z" fill="white"/>
</g>
<defs>
<clipPath id="clip0_70_492">
<rect width="54.85" height="55" fill="white" transform="matrix(1 0 0 -1 0.219971 55.3301)"/>
</clipPath>
</defs>
</svg>
