<svg width="39" height="40" viewBox="0 0 39 40" fill="none" xmlns="http://www.w3.org/2000/svg">
<g id="Icon" clip-path="url(#clip0_66_427)">
<path id="Vector" d="M38.0431 32.8911C38.3901 33.0894 38.5141 33.3745 38.4149 33.7463C38.3158 34.1181 38.0679 34.304 37.6713 34.304L36.6302 34.2296C35.4899 34.2296 34.548 33.7835 33.8043 32.8911L32.6145 31.4038C32.4658 31.2055 32.2923 31.032 32.094 30.8832C29.4168 28.4044 27.88 26.4957 27.4834 25.1572C27.4338 25.058 27.3842 24.9589 27.3346 24.8597C27.2355 24.6614 27.1115 24.3887 26.9628 24.0417C26.5166 24.1409 26.0704 24.1904 25.6242 24.1904C25.1781 24.1904 24.7319 24.1409 24.2857 24.0417C23.8891 23.9426 23.5544 23.6947 23.2818 23.2981C23.0091 22.9015 22.8976 22.4801 22.9471 22.0339C23.0959 21.0423 23.4429 19.9517 23.9882 18.7618C22.8976 18.0182 21.9804 17.2498 21.2367 16.4565C21.088 16.3078 20.9641 16.1591 20.8649 16.0103C19.6255 14.4735 18.634 13.5563 17.8903 13.2589C18.6836 14.647 19.0802 16.3078 19.0802 18.2413C19.0802 18.5387 19.1793 18.8362 19.3776 19.1337C19.6255 19.5303 19.7742 19.9765 19.8238 20.4722C19.8734 20.7201 19.8982 20.968 19.8982 21.2159C19.8486 21.7116 19.9478 22.2074 20.1956 22.7031C20.4931 23.2485 20.8897 24.0169 21.3855 25.0084C21.9308 26.0496 22.4266 26.9419 22.8728 27.6856C23.9634 29.7678 25.9713 31.4286 28.8963 32.668C29.3425 32.8663 29.6895 33.1638 29.9374 33.5604C29.987 33.6099 30.0118 33.6347 30.0118 33.6347C30.1109 33.833 30.1109 34.0313 30.0118 34.2296C29.9126 34.4279 29.7391 34.5271 29.4912 34.5271H23.1702C22.8232 34.5271 22.5257 34.4032 22.2778 34.1553C22.03 33.9074 21.906 33.5851 21.906 33.1885C21.906 33.139 21.906 33.0894 21.906 33.0398C22.0548 32.1474 21.8317 31.379 21.2367 30.7345C18.1134 27.3633 16.4526 24.5375 16.2543 22.257C15.5603 21.0671 14.3456 19.2576 12.6105 16.8284L7.33059 22.257C7.03313 22.604 6.81004 22.9758 6.66131 23.3724C6.51258 23.8186 6.28949 24.2648 5.99203 24.711C5.24839 25.6529 4.62868 27.2394 4.13292 29.4703C3.98419 30.1644 4.23207 30.6106 4.87656 30.8089L7.62805 31.7012C7.97508 31.8004 8.12381 32.0235 8.07424 32.3705C8.02466 32.7176 7.82635 32.8911 7.47932 32.8911L1.4558 33.0398C1.00961 33.0398 0.687366 32.8415 0.489061 32.4449C0.290756 32.0979 0.290756 31.726 0.489061 31.3294C1.13355 30.2883 1.55495 29.3712 1.75326 28.5779C1.80283 28.3301 1.85241 27.8591 1.90199 27.165C2.19944 24.4879 2.96788 22.4057 4.20728 20.9184C4.45517 20.6209 4.65347 20.2987 4.8022 19.9517C5.645 18.0678 7.08271 15.0684 9.11534 10.9536C8.91703 9.51585 9.4128 8.20208 10.6026 7.01225C11.7429 5.92157 13.3541 5.37623 15.4363 5.37623C17.8656 5.37623 19.9725 5.8472 21.7573 6.78915C23.0959 7.5328 24.2609 8.56151 25.2524 9.87528C26.244 11.1891 27.062 13.2093 27.7065 15.936C28.1526 16.0351 28.5988 16.1591 29.045 16.3078C30.1357 16.754 30.8793 17.4233 31.2759 18.3156C31.9204 19.6542 31.3999 21.2159 29.7143 23.0006C29.8134 23.3476 30.0118 23.6203 30.3092 23.8186C31.2512 24.6614 31.9204 25.529 32.3171 26.4214C32.7137 27.2642 33.1351 28.2557 33.5812 29.396C33.73 29.7926 34.0274 30.0652 34.4736 30.214L35.7378 30.6601C36.1344 30.7593 36.3823 31.0072 36.4815 31.4038C36.5806 31.85 36.8285 32.197 37.2251 32.4449L38.0431 32.8911ZM30.8298 18.5387C30.3836 17.5472 29.4416 16.8779 28.0039 16.5309C28.0535 16.6301 28.1031 16.7292 28.1526 16.8284C28.8467 18.2165 29.169 19.2576 29.1194 19.9517C29.1194 20.5962 29.2185 21.2159 29.4168 21.8108C29.4664 22.0091 29.516 22.1826 29.5656 22.3313C30.8545 20.7945 31.2759 19.5303 30.8298 18.5387ZM10.9745 7.38407C10.1812 8.17729 9.74744 9.03248 9.67307 9.94964C9.59871 10.8668 9.66068 11.5361 9.85898 11.9575C10.0573 12.3789 10.2804 12.7383 10.5283 13.0358C12.7096 13.6803 14.8414 13.5315 16.9236 12.5896C16.7749 10.904 15.8577 8.69784 14.1721 5.97114C12.8336 6.16945 11.7677 6.64042 10.9745 7.38407ZM6.95877 21.8851L12.313 16.3822C11.5198 15.2915 10.8009 14.3 10.1564 13.4076C9.75983 12.9614 9.46237 12.4161 9.26407 11.7716C7.42974 15.5394 6.09118 18.3404 5.24839 20.1748C5.09966 20.5714 4.87656 20.9184 4.57911 21.2159C3.43885 22.604 2.71999 24.6118 2.42254 27.2394C2.37296 27.9335 2.32338 28.4292 2.27381 28.7267C2.0755 29.5695 1.62932 30.5362 0.935248 31.6269C0.836095 31.8252 0.836095 32.0235 0.935248 32.2218C1.0344 32.4201 1.20792 32.5193 1.4558 32.5193L7.47932 32.3705C7.5289 32.3705 7.55368 32.3457 7.55368 32.2962C7.55368 32.2466 7.5289 32.2218 7.47932 32.2218L4.72784 31.3294C4.33122 31.1807 4.02137 30.9204 3.79828 30.5486C3.57519 30.1768 3.51322 29.7926 3.61237 29.396C4.15771 27.0659 4.8022 25.4051 5.54584 24.4135C5.8433 24.0169 6.04161 23.6203 6.14076 23.2237C6.33907 22.7279 6.61173 22.2818 6.95877 21.8851ZM18.5596 18.2413C18.5596 17.3489 18.4233 16.3822 18.1506 15.3411C17.878 14.3 17.5185 13.5563 17.0723 13.1101C15.7834 13.705 14.5192 14.0025 13.2797 14.0025C12.5857 14.0025 11.842 13.9034 11.0488 13.705C13.8251 17.6216 15.709 20.3731 16.7005 21.9595C16.7501 22.0091 16.7749 22.0587 16.7749 22.1082C16.9732 24.2896 18.5844 27.0659 21.6086 30.4371C22.3026 31.1807 22.5753 32.0731 22.4266 33.1142C22.4266 33.1638 22.4266 33.1885 22.4266 33.1885C22.4266 33.4364 22.5009 33.6347 22.6497 33.7835C22.7984 33.9322 22.9719 34.0065 23.1702 34.0065H29.4912C29.5408 34.0065 29.5656 33.9942 29.5656 33.9694C29.5656 33.9446 29.5408 33.9074 29.4912 33.8578C29.2929 33.5604 29.0202 33.3373 28.6732 33.1885C25.649 31.8996 23.5668 30.1644 22.4266 27.983C21.9804 27.1402 21.4846 26.2231 20.9393 25.2315C20.4435 24.24 20.0469 23.4716 19.7495 22.9262C19.452 22.3809 19.3281 21.786 19.3776 21.1415C19.3776 20.9432 19.3528 20.7449 19.3033 20.5466C19.2537 20.1004 19.1298 19.7286 18.9314 19.4311C18.6836 19.0841 18.5596 18.6875 18.5596 18.2413ZM24.4344 23.5212C25.1285 23.6699 25.8969 23.6699 26.7397 23.5212C26.7397 23.5212 26.6158 23.2237 26.3679 22.6288C26.12 22.0339 25.8473 21.3894 25.5499 20.6953C25.2524 20.0012 25.0789 19.5551 25.0293 19.3567C24.831 19.2576 24.6327 19.1584 24.4344 19.0593C23.9387 20.1995 23.6164 21.2159 23.4677 22.1082C23.3685 22.8519 23.6908 23.3229 24.4344 23.5212ZM37.6713 33.7835C37.7704 33.7835 37.8324 33.7339 37.8572 33.6347C37.882 33.5356 37.8696 33.4364 37.82 33.3373L37.002 32.8911C36.4567 32.5936 36.1096 32.1474 35.9609 31.5525C35.9113 31.3542 35.7874 31.2055 35.5891 31.1063L34.2505 30.7345C33.7052 30.5362 33.3334 30.1644 33.1351 29.619C32.6393 28.4788 32.2179 27.4873 31.8709 26.6445C31.5238 25.8017 30.8793 24.9837 29.9374 24.1904C29.5408 23.893 29.2929 23.4964 29.1937 23.0006C29.0946 22.604 28.9954 22.257 28.8963 21.9595C28.698 21.315 28.5988 20.6457 28.5988 19.9517C28.6484 19.3072 28.3509 18.3404 27.7065 17.0514C27.5081 16.7044 27.3594 16.4565 27.2603 16.3078C27.2603 16.2582 27.2603 16.2334 27.2603 16.2334C26.6158 13.5563 25.8102 11.5609 24.8434 10.2471C23.8767 8.93333 22.7736 7.92941 21.5342 7.23534C19.799 6.34297 17.7664 5.89678 15.4363 5.89678C15.1884 5.89678 14.9653 5.89678 14.767 5.89678C16.4031 8.62348 17.2954 10.8544 17.4442 12.5896C18.1382 12.7879 18.7207 13.073 19.1917 13.4448C19.6627 13.8166 20.3692 14.5726 21.3111 15.7129C21.4103 15.812 21.5342 15.936 21.6829 16.0847C22.4266 16.9275 23.4181 17.7455 24.6575 18.5387C24.013 17.2002 23.5173 16.3326 23.1702 15.936C23.0711 15.8368 23.0835 15.7253 23.2074 15.6013C23.3313 15.4774 23.4429 15.465 23.542 15.5642C24.0378 16.0599 24.6823 17.225 25.4755 19.0593C25.6738 19.5551 25.9713 20.3235 26.3679 21.3646C26.7645 22.2074 27.0372 22.8271 27.1859 23.2237C27.4338 23.8682 27.6569 24.3392 27.8552 24.6366C27.9048 24.7358 27.9543 24.8597 28.0039 25.0084C28.3509 26.2479 29.8382 28.0822 32.4658 30.5114C32.6641 30.7097 32.8624 30.908 33.0607 31.1063L34.2505 32.5936C34.8454 33.3373 35.6387 33.7091 36.6302 33.7091L37.6713 33.7835Z" fill="#22B6F2"/>
</g>
<defs>
<clipPath id="clip0_66_427">
<rect width="38.149" height="38.149" fill="white" transform="matrix(1 0 0 -1 0.306152 39.0638)"/>
</clipPath>
</defs>
</svg>
