<svg width="48" height="49" viewBox="0 0 48 49" fill="none" xmlns="http://www.w3.org/2000/svg">
<g id="Icon">
<path id="Vector" d="M46.1755 15.0436C47.4854 16.2288 48.078 17.913 47.9533 20.0962C47.8285 21.219 47.3607 22.1703 46.5498 22.95C45.7389 23.7297 44.7252 24.2912 43.5088 24.6342C42.2925 24.9773 41.2476 25.2112 40.3743 25.336C39.501 25.4607 38.6589 25.5231 37.848 25.5231C37.1619 25.5231 36.7876 25.2112 36.7252 24.5874C36.6628 23.8389 36.5693 23.028 36.4445 22.1547C34.7603 21.8428 33.4504 21.1878 32.5147 20.1898C31.1424 21.4997 29.5829 22.7161 27.8363 23.8389L24.1872 26.8331C24.2496 27.0202 24.2808 27.1761 24.2808 27.3009C24.4055 28.6108 24.0624 29.7025 23.2515 30.5758C23.002 30.8253 22.7213 31.0436 22.4094 31.2307L22.1287 36.0027C24.6238 36.1898 26.464 36.4393 27.6492 36.7512C28.0235 36.8759 28.2106 37.1411 28.2106 37.5465C28.2106 37.952 28.0235 38.2171 27.6492 38.3418C25.7155 38.7785 23.5322 38.9968 21.0995 38.9968C20.85 38.9968 20.6316 38.9968 20.4445 38.9968C20.3821 39.3087 20.3509 39.6206 20.3509 39.9325C22.2847 39.683 24.156 39.9949 25.965 40.8682L27.0878 41.336C27.3373 41.4607 27.4621 41.6947 27.4621 42.0377C27.4621 42.3808 27.3373 42.6147 27.0878 42.7395L25.4971 43.488C24.9357 43.7375 24.3743 43.8623 23.8129 43.8623C23.501 43.8623 23.2203 43.8311 22.9708 43.7687C21.0995 43.3945 19.6024 43.0202 18.4796 42.6459C18.2925 42.5836 18.1677 42.49 18.1053 42.3652C17.1073 40.8058 16.7642 37.3126 17.0761 31.8857C16.3899 31.7609 15.2359 31.5738 13.6141 31.3243C9.37238 30.5758 6.97082 30.2639 6.40942 30.3886C5.78564 30.451 5.34899 31.2619 5.09948 32.8214C4.91234 33.5075 4.78759 34.0066 4.72521 34.3184C4.53807 34.8175 4.25737 35.4413 3.8831 36.1898C3.63359 36.8136 3.16575 37.1255 2.47959 37.1255C1.79343 37.1255 1.3256 36.7824 1.07608 36.0962L0.608248 35.067C0.0468444 33.6323 -0.0779119 32.104 0.233979 30.4822L0.608248 28.4237C0.483492 27.4257 0.670626 26.6771 1.16965 26.1781C1.41916 25.991 1.66868 25.8662 1.91819 25.8038C1.73106 24.8682 1.98057 24.1196 2.66673 23.5582C3.16575 23.1216 3.78953 23.028 4.53807 23.2775C5.16185 23.4646 5.72326 23.4646 6.22228 23.2775C7.15796 22.7785 8.77979 22.3418 11.0878 21.9676L9.12287 19.6284C8.12482 18.4432 7.3139 17.1644 6.69012 15.7921C5.56731 13.1722 5.47375 11.0202 6.40942 9.33598C7.46985 7.46464 9.40357 6.12351 12.2106 5.31259C15.4543 4.31454 19.1034 4.31454 23.158 5.31259C26.7759 6.18589 30.1131 8.24437 33.1697 11.488C34.2301 12.6108 35.1969 13.796 36.0702 15.0436C38.2535 12.3613 40.2808 11.1138 42.1521 11.3009C43.4621 11.4257 44.2418 12.143 44.4913 13.4529C44.5537 13.6401 44.5849 13.8584 44.5849 14.1079C45.2086 14.3574 45.7389 14.6693 46.1755 15.0436ZM42.0585 12.143C40.4991 11.9559 38.6589 13.1722 36.5381 15.7921H37.4737C38.5342 14.6693 39.7506 13.9832 41.1229 13.7336C41.9338 13.5465 42.8071 13.5777 43.7428 13.8272C43.7428 13.7648 43.7428 13.6713 43.7428 13.5465C43.4932 12.6732 42.9318 12.2054 42.0585 12.143ZM22.8773 6.1547C20.5069 5.53092 18.2301 5.31259 16.0468 5.49973C16.2964 6.37302 16.5147 7.2775 16.7018 8.21318C17.0761 10.5835 16.9825 12.4549 16.4211 13.8272C16.8578 14.451 17.2944 15.0748 17.7311 15.6986L22.3159 15.605C22.5654 15.605 22.7213 15.7297 22.7837 15.9793C22.9708 17.8506 23.7817 19.1917 25.2164 20.0027L25.4036 19.722C26.2145 18.412 27.0878 17.1333 28.0235 15.8857C30.0819 13.2658 31.735 12.1742 32.9825 12.6108C33.0449 12.6732 33.1073 12.7044 33.1697 12.7044C30.0507 9.21123 26.6199 7.02799 22.8773 6.1547ZM19.8831 16.5407H18.2925C19.54 18.3496 20.6005 19.9715 21.4737 21.4062L23.3451 19.4412C23.0956 19.1294 22.9084 18.8175 22.7837 18.5056L19.8831 16.5407ZM21.2866 16.4471L22.1287 17.1021C22.0663 16.9149 22.004 16.6966 21.9416 16.4471H21.2866ZM21.9416 22.1547C22.004 22.3418 22.0975 22.4978 22.2223 22.6225L24.5615 20.5641C24.312 20.4393 24.0936 20.2522 23.9065 20.0027L21.9416 22.1547ZM3.22813 24.2132C2.72911 24.6498 2.60435 25.2112 2.85386 25.8974C3.85191 26.0221 4.94353 25.9598 6.12872 25.7103C8.99811 24.837 11.3685 24.4627 13.2398 24.5874L11.6492 22.7161C9.21644 23.0904 7.53223 23.527 6.59655 24.026C5.91039 24.3379 5.16185 24.3691 4.35094 24.1196C3.85191 23.9325 3.47764 23.9637 3.22813 24.2132ZM6.31585 29.5465C6.93963 29.4218 9.0293 29.6713 12.5849 30.2951C12.0858 28.8604 11.9923 27.2385 12.3042 25.4296C10.6199 25.4919 8.62384 25.835 6.31585 26.4588C5.06829 26.7707 3.78954 26.8331 2.47959 26.6459C2.1677 26.5835 1.91819 26.6459 1.73106 26.8331C1.41916 27.0826 1.3256 27.6128 1.45035 28.4237C1.45035 28.4237 1.45035 28.4549 1.45035 28.5173L0.982517 30.6693C0.733004 32.104 0.857761 33.4763 1.35679 34.7863L1.82462 35.8155C1.94938 36.1274 2.1677 36.2834 2.47959 36.2834C2.79148 36.2834 3.00981 36.1586 3.13456 35.9091C3.50883 35.1605 3.75835 34.5368 3.8831 34.0377C4.00786 33.7882 4.13261 33.3204 4.25737 32.6342C4.63164 30.7629 5.3178 29.7336 6.31585 29.5465ZM25.5907 41.6167C23.8441 40.7434 22.004 40.4627 20.0702 40.7746H19.8831C19.7583 40.837 19.6492 40.8214 19.5556 40.7278C19.4621 40.6342 19.4153 40.5251 19.4153 40.4003C19.7272 37.219 20.1014 34.4432 20.5381 32.0728C20.1638 32.1352 19.7895 32.1664 19.4153 32.1664C19.1034 32.1664 18.6044 32.104 17.9182 31.9793C17.6687 37.1567 17.9494 40.4315 18.7603 41.8038C19.8831 42.2405 21.349 42.6147 23.158 42.9266C23.8441 43.0514 24.4991 42.989 25.1229 42.7395L26.3392 42.1781C26.4016 42.1157 26.4328 42.0689 26.4328 42.0377C26.4328 42.0066 26.4016 41.9598 26.3392 41.8974L25.5907 41.6167ZM21.6609 36.7512C21.4114 36.7512 21.2866 36.5952 21.2866 36.2834L21.5673 31.6986C21.5049 31.6986 21.4426 31.7297 21.3802 31.7921C21.0683 33.4763 20.7876 35.5972 20.5381 38.1547C22.7837 38.2795 24.9981 38.0923 27.1814 37.5933C27.2437 37.5933 27.2749 37.5777 27.2749 37.5465C27.2749 37.5153 27.2437 37.4997 27.1814 37.4997C25.8714 37.1255 24.0313 36.8759 21.6609 36.7512ZM22.5966 30.0143C23.2203 29.3282 23.501 28.4549 23.4387 27.3945C23.3139 26.334 22.3003 24.3067 20.3977 21.3126C18.4952 18.3184 16.6394 15.5738 14.8305 13.0787C14.7057 12.8915 14.7525 12.72 14.9708 12.5641C15.1891 12.4081 15.3607 12.4237 15.4854 12.6108C15.6102 12.798 15.7038 12.9227 15.7661 12.9851C16.3275 11.1138 16.1404 8.64983 15.2047 5.5933C11.1502 6.02994 8.4679 7.43345 7.15796 9.80382C6.34704 11.1761 6.4718 13.0787 7.53223 15.5114C8.03125 16.759 8.77979 17.9754 9.77784 19.1605L14.5498 24.8682L16.3275 26.6459C16.5147 26.8331 16.5147 27.0514 16.3275 27.3009C16.2652 27.3633 16.1716 27.3945 16.0468 27.3945C15.9221 27.3945 15.8285 27.3633 15.7661 27.3009L13.9884 25.5231C13.8012 25.4607 13.5205 25.4296 13.1463 25.4296C12.772 27.3633 12.9279 29.0475 13.6141 30.4822C13.6141 30.4822 13.6297 30.4822 13.6609 30.4822C13.6921 30.4822 13.7389 30.4822 13.8012 30.4822C16.9825 31.0436 18.8539 31.3243 19.4153 31.3243C20.7252 31.3243 21.7856 30.8876 22.5966 30.0143ZM27.3685 23.0904C30.425 21.219 32.4835 19.4101 33.5439 17.6635C34.3548 16.2912 34.6667 15.3243 34.4796 14.7629C34.2925 14.2639 33.6687 13.796 32.6082 13.3594C31.7973 13.0475 30.4874 14.0767 28.6784 16.4471C27.6804 17.6947 26.8383 18.9734 26.1521 20.2834C26.0897 20.2834 26.0585 20.3145 26.0585 20.3769L22.5966 23.3711C23.2203 24.4315 23.657 25.3048 23.9065 25.991L27.2749 23.1839C27.2749 23.1839 27.3061 23.1528 27.3685 23.0904ZM47.1112 20.0027C47.2359 18.1313 46.7369 16.6966 45.6141 15.6986C44.3665 14.5758 42.9318 14.1703 41.31 14.4822C40.0001 14.7941 38.8773 15.449 37.9416 16.4471C37.8168 16.5719 37.6921 16.6342 37.5673 16.6342H36.2574C36.0702 16.6342 35.9455 16.5407 35.8831 16.3535C35.7584 16.1664 35.5712 15.8857 35.3217 15.5114C35.1969 16.1352 34.8539 16.9773 34.2925 18.0377C33.9806 18.5368 33.5751 19.067 33.0761 19.6284C33.9494 20.5641 35.1969 21.1566 36.8188 21.4062C37.0683 21.4685 37.193 21.5933 37.193 21.7804C37.3178 22.7161 37.4426 23.6206 37.5673 24.4939C37.5673 24.6186 37.6297 24.681 37.7545 24.681C39.8129 24.681 41.6219 24.4003 43.1814 23.8389C45.6765 23.028 46.9864 21.7492 47.1112 20.0027Z" fill="white"/>
</g>
</svg>
