<svg width="21" height="26" viewBox="0 0 21 26" fill="none" xmlns="http://www.w3.org/2000/svg">
<g id="Icon" clip-path="url(#clip0_79_1155)">
<path id="Vector" d="M3.46625 19.5811C3.46625 19.5811 3.50887 19.5385 3.59412 19.4533C3.67936 19.368 3.72198 19.2087 3.72198 18.9755C3.72198 18.7422 3.63674 18.5403 3.46625 18.3698C3.29577 18.1993 3.09387 18.114 2.86058 18.114C2.62728 18.114 2.42539 18.1993 2.2549 18.3698C2.08442 18.5403 1.99917 18.7422 1.99917 18.9755C1.99917 19.2087 2.08442 19.4106 2.2549 19.5811C2.42539 19.7516 2.62728 19.8369 2.86058 19.8369C3.09387 19.8369 3.29577 19.7516 3.46625 19.5811ZM19.2272 11.2228C19.2272 10.7652 19.0523 10.3637 18.7023 10.0182C18.3524 9.67274 17.9531 9.50001 17.5044 9.50001H12.7667C12.7667 8.97958 12.9821 8.26399 13.4128 7.35324C13.8435 6.44248 14.0588 5.7224 14.0588 5.193C14.0588 4.31365 13.9153 3.66311 13.6281 3.24138C13.341 2.81965 12.7667 2.60879 11.9053 2.60879C11.672 2.84208 11.5015 3.22343 11.3939 3.75284C11.2862 4.28224 11.1493 4.84529 10.9833 5.442C10.8173 6.0387 10.5504 6.52997 10.1825 6.9158C9.9851 7.12218 9.63964 7.53045 9.14613 8.14061C9.11024 8.18548 9.00705 8.32007 8.83657 8.54439C8.66608 8.76872 8.52475 8.95266 8.41259 9.09623C8.30043 9.2398 8.14565 9.43047 7.94824 9.66826C7.75084 9.90604 7.57138 10.1034 7.40986 10.2605C7.24835 10.4175 7.07562 10.5768 6.89168 10.7383C6.70773 10.8998 6.52827 11.0209 6.3533 11.1017C6.17833 11.1824 6.01906 11.2228 5.87549 11.2228H5.44479V19.8369H5.87549C5.99214 19.8369 6.13346 19.8503 6.29946 19.8772C6.46546 19.9042 6.61352 19.9333 6.74362 19.9647C6.87373 19.9961 7.04422 20.0455 7.25508 20.1128C7.46595 20.1801 7.62297 20.2317 7.72616 20.2676C7.82935 20.3035 7.98862 20.3595 8.20397 20.4358C8.41932 20.5121 8.54943 20.5592 8.59429 20.5771C10.4876 21.2322 12.022 21.5597 13.1974 21.5597H14.826C16.5488 21.5597 17.4102 20.8104 17.4102 19.3119C17.4102 19.0786 17.3878 18.8274 17.3429 18.5582C17.6121 18.4146 17.8252 18.1791 17.9822 17.8516C18.1393 17.5241 18.2178 17.1943 18.2178 16.8623C18.2178 16.5303 18.137 16.2208 17.9755 15.9336C18.4511 15.485 18.6889 14.9511 18.6889 14.3319C18.6889 14.1076 18.644 13.8586 18.5543 13.585C18.4645 13.3113 18.3524 13.0982 18.2178 12.9456C18.5049 12.9367 18.7449 12.7258 18.9379 12.313C19.1308 11.9003 19.2272 11.5369 19.2272 11.2228ZM20.9501 11.2094C20.9501 12.008 20.7302 12.7393 20.2905 13.4032C20.3713 13.6994 20.4117 14.0089 20.4117 14.3319C20.4117 15.0229 20.2412 15.6689 19.9002 16.2701C19.9271 16.4585 19.9406 16.6515 19.9406 16.8489C19.9406 17.7551 19.6714 18.5537 19.133 19.2446C19.142 20.4919 18.7607 21.4767 17.989 22.199C17.2173 22.9213 16.1989 23.2825 14.9337 23.2825H14.4491H13.1974C12.336 23.2825 11.4858 23.1815 10.6469 22.9796C9.80789 22.7777 8.83657 22.4839 7.73289 22.098C6.69203 21.7391 6.0729 21.5597 5.87549 21.5597H1.99917C1.52361 21.5597 1.11758 21.3914 0.781096 21.0549C0.44461 20.7184 0.276367 20.3124 0.276367 19.8369V11.2228C0.276367 10.7473 0.44461 10.3412 0.781096 10.0047C1.11758 9.66826 1.52361 9.50001 1.99917 9.50001H5.68706C6.01008 9.28466 6.62473 8.58926 7.531 7.4138C8.05143 6.74083 8.53148 6.16656 8.97116 5.691C9.18651 5.46667 9.34578 5.08308 9.44897 4.54021C9.55216 3.99735 9.689 3.42981 9.85948 2.8376C10.03 2.24538 10.3081 1.76084 10.694 1.38398C11.0439 1.05198 11.4477 0.885979 11.9053 0.885979C12.659 0.885979 13.3365 1.03179 13.9377 1.32341C14.5389 1.61503 14.9965 2.07041 15.3106 2.68954C15.6246 3.30868 15.7816 4.14316 15.7816 5.193C15.7816 6.02748 15.5663 6.88889 15.1356 7.77721H17.5044C18.4376 7.77721 19.2452 8.11818 19.9271 8.80012C20.6091 9.48207 20.9501 10.2851 20.9501 11.2094Z" fill="white"/>
</g>
<defs>
<clipPath id="clip0_79_1155">
<rect width="20.6737" height="24.9807" fill="white" transform="matrix(1 0 0 -1 0.275879 25.6714)"/>
</clipPath>
</defs>
</svg>
