<svg width="24" height="24" viewBox="0 0 24 24" fill="none" xmlns="http://www.w3.org/2000/svg">
<g id="notification">
<path id="Vector" fill-rule="evenodd" clip-rule="evenodd" d="M11.9966 0.752961C9.70918 0.752961 7.70304 1.73991 6.31186 3.23308C4.93193 4.71276 4.11447 6.62591 3.78074 8.63055L2.28082 17.6331C2.05433 18.9905 3.12603 20.2504 4.50145 20.2504H8.32626C8.67649 21.9559 10.1944 23.2488 11.9996 23.2488C13.8047 23.2488 15.3219 21.9559 15.6729 20.2504H19.4977C20.8731 20.2504 21.9448 18.9905 21.7183 17.6331L20.2184 8.63055C19.8839 6.62591 19.0679 4.71276 17.6888 3.23308C16.9617 2.4502 16.0809 1.82583 15.1015 1.39907C14.122 0.972314 13.065 0.752353 11.9966 0.752961ZM11.9966 2.24688C13.852 2.24688 15.4629 3.04559 16.5916 4.25678C17.7323 5.48072 18.4462 7.10888 18.7402 8.87354L20.2401 17.8761C20.2604 17.9841 20.2562 18.0953 20.228 18.2015C20.1998 18.3077 20.1483 18.4063 20.0772 18.4901C20.006 18.5739 19.9171 18.6407 19.8168 18.6858C19.7166 18.7308 19.6076 18.753 19.4977 18.7505H4.50145C4.39158 18.753 4.28254 18.7308 4.18229 18.6858C4.08204 18.6407 3.99311 18.5739 3.92198 18.4901C3.85084 18.4063 3.7993 18.3077 3.7711 18.2015C3.74291 18.0953 3.73877 17.9841 3.75899 17.8761L5.26041 8.87354C5.5544 7.10888 6.26686 5.48072 7.40755 4.25678C8.53624 3.04559 10.1404 2.24688 11.9966 2.24688ZM12.0798 3.8833C12.0523 3.88278 12.0247 3.88378 11.9973 3.8863C10.6211 3.8863 9.4377 4.48027 8.60299 5.37572C7.71804 6.32517 7.12707 7.6391 6.87583 9.14577C6.85983 9.24318 6.86316 9.34278 6.88565 9.43889C6.90814 9.535 6.94934 9.62575 7.0069 9.70594C7.06446 9.78613 7.13725 9.8542 7.22111 9.90626C7.30497 9.95832 7.39827 9.99335 7.49567 10.0094C7.59308 10.0254 7.69268 10.022 7.78879 9.99953C7.8849 9.97704 7.97565 9.93585 8.05584 9.87829C8.13603 9.82073 8.2041 9.74794 8.25616 9.66408C8.30822 9.58021 8.34325 9.48692 8.35925 9.38951C8.57074 8.12208 9.06422 7.07513 9.70018 6.39342C10.2897 5.76045 11.0381 5.38022 11.9966 5.38022C12.0966 5.38883 12.1973 5.37726 12.2928 5.34621C12.3883 5.31516 12.4765 5.26525 12.5524 5.19945C12.6282 5.13365 12.69 5.0533 12.7342 4.96315C12.7784 4.873 12.8041 4.7749 12.8097 4.67466C12.8152 4.57442 12.8006 4.47408 12.7667 4.37959C12.7328 4.2851 12.6802 4.19838 12.6121 4.12458C12.5441 4.05078 12.4619 3.99139 12.3705 3.94995C12.279 3.9085 12.1802 3.88584 12.0798 3.8833ZM9.88617 20.2504H14.113C13.9605 20.6892 13.675 21.0693 13.2961 21.338C12.9173 21.6066 12.464 21.7502 11.9996 21.7489C11.5351 21.7502 11.0819 21.6066 10.703 21.338C10.3241 21.0693 10.0386 20.6892 9.88617 20.2504Z" fill="black"/>
</g>
</svg>
