<svg width="23" height="26" viewBox="0 0 23 26" fill="none" xmlns="http://www.w3.org/2000/svg">
<g id="Icon" clip-path="url(#clip0_79_1163)">
<path id="Vector" d="M19.3659 14.1484V17.6344C19.3659 18.7022 18.9868 19.6152 18.2286 20.3734C17.4704 21.1316 16.5574 21.5107 15.4896 21.5107H4.29135C3.22357 21.5107 2.31058 21.1316 1.55236 20.3734C0.794146 19.6152 0.415039 18.7022 0.415039 17.6344V6.43618C0.415039 5.3684 0.794146 4.4554 1.55236 3.69719C2.31058 2.93897 3.22357 2.55986 4.29135 2.55986H7.72351C7.84016 2.55986 7.9411 2.60249 8.02635 2.68773C8.11159 2.77297 8.15421 2.87392 8.15421 2.99057C8.15421 3.23284 8.03756 3.3764 7.80427 3.42127C7.11335 3.65457 6.51665 3.92375 6.01416 4.22883C5.92443 4.26473 5.85265 4.28267 5.79881 4.28267H4.29135C3.69914 4.28267 3.19217 4.49354 2.77044 4.91526C2.34871 5.33699 2.13785 5.84397 2.13785 6.43618V17.6344C2.13785 18.2266 2.34871 18.7336 2.77044 19.1553C3.19217 19.5771 3.69914 19.7879 4.29135 19.7879H15.4896C16.0818 19.7879 16.5888 19.5771 17.0105 19.1553C17.4322 18.7336 17.6431 18.2266 17.6431 17.6344V14.7541C17.6431 14.5836 17.7239 14.4535 17.8854 14.3638C18.1366 14.2471 18.3789 14.0811 18.6122 13.8658C18.7558 13.7222 18.9128 13.6863 19.0833 13.7581C19.2717 13.8389 19.3659 13.969 19.3659 14.1484ZM22.5558 7.47256L17.3874 12.641C17.2259 12.8115 17.024 12.8967 16.7817 12.8967C16.674 12.8967 16.5619 12.8743 16.4452 12.8294C16.0953 12.6769 15.9203 12.4122 15.9203 12.0353V9.45109H13.7668C10.8685 9.45109 8.90345 10.0388 7.87156 11.2143C6.80378 12.4436 6.47178 14.5657 6.87557 17.5806C6.90248 17.787 6.81275 17.9395 6.60638 18.0382C6.53459 18.0562 6.48076 18.0651 6.44486 18.0651C6.3013 18.0651 6.18465 18.0068 6.09492 17.8902C6.00519 17.7645 5.91097 17.6255 5.81227 17.4729C5.71357 17.3204 5.53635 17.013 5.28062 16.5509C5.02489 16.0888 4.80281 15.6424 4.61438 15.2117C4.42595 14.781 4.25322 14.2696 4.09619 13.6774C3.93917 13.0851 3.86065 12.5378 3.86065 12.0353C3.86065 11.5956 3.87636 11.1874 3.90776 10.8105C3.93917 10.4336 4.00198 10.0298 4.09619 9.59915C4.19041 9.16844 4.31603 8.77363 4.47306 8.41472C4.63008 8.0558 4.84095 7.69015 5.10565 7.31777C5.37035 6.9454 5.67768 6.6134 6.02762 6.32178C6.37757 6.03015 6.80154 5.75424 7.29954 5.49402C7.79754 5.2338 8.3561 5.01621 8.97524 4.84124C9.59437 4.66627 10.31 4.52943 11.122 4.43073C11.9341 4.33202 12.8157 4.28267 13.7668 4.28267H15.9203V1.69846C15.9203 1.3216 16.0953 1.05689 16.4452 0.904354C16.5619 0.859489 16.674 0.837057 16.7817 0.837057C17.015 0.837057 17.2169 0.9223 17.3874 1.09279L22.5558 6.26121C22.7263 6.43169 22.8115 6.63359 22.8115 6.86688C22.8115 7.10018 22.7263 7.30207 22.5558 7.47256Z" fill="white"/>
</g>
<defs>
<clipPath id="clip0_79_1163">
<rect width="22.3965" height="24.9807" fill="white" transform="matrix(1 0 0 -1 0.414551 25.6223)"/>
</clipPath>
</defs>
</svg>
