<svg width="19" height="19" viewBox="0 0 19 19" fill="none" xmlns="http://www.w3.org/2000/svg">
<g id="Button - Add to wishlist" clip-path="url(#clip0_85_70)">
<path id="Vector" d="M13.207 1.6731C13.8867 1.6731 14.5312 1.802 15.1406 2.05981C15.75 2.31763 16.2773 2.67212 16.7227 3.12329C17.168 3.57446 17.5254 4.10474 17.7949 4.71411C18.0527 5.31177 18.1816 5.9563 18.1816 6.64771C18.1816 7.78442 17.7129 8.97388 16.7754 10.2161C15.8379 11.4583 14.8066 12.5979 13.6816 13.635C12.5566 14.6721 11.5254 15.5305 10.5879 16.2102C9.65039 16.8899 9.18164 17.2297 9.18164 17.2297C9.18164 17.2297 8.71289 16.9016 7.77539 16.2454C6.83789 15.5891 5.80664 14.7483 4.68164 13.7229C3.55664 12.6975 2.52539 11.5579 1.58789 10.304C0.650391 9.06177 0.181641 7.84302 0.181641 6.64771C0.181641 5.79224 0.310547 5.05396 0.568359 4.43286C0.837891 3.80005 1.19531 3.28149 1.64062 2.8772C2.08594 2.4729 2.61328 2.17114 3.22266 1.97192C3.82031 1.77271 4.46484 1.6731 5.15625 1.6731C5.98828 1.6731 6.75293 1.8606 7.4502 2.2356C8.14746 2.6106 8.72461 3.10864 9.18164 3.72974C9.63867 3.10864 10.2158 2.6106 10.9131 2.2356C11.6104 1.8606 12.375 1.6731 13.207 1.6731Z" fill="#DC2626"/>
</g>
<defs>
<clipPath id="clip0_85_70">
<rect width="18.36" height="18" fill="white" transform="matrix(1 0 0 -1 0 18.0737)"/>
</clipPath>
</defs>
</svg>
