<svg width="19" height="20" viewBox="0 0 19 20" fill="none" xmlns="http://www.w3.org/2000/svg">
<g id="image" clip-path="url(#clip0_1_809)">
<g id="Group">
<path id="Vector" d="M9.57001 18.3842C14.5904 18.3842 18.6603 14.3143 18.6603 9.29389C18.6603 4.27347 14.5904 0.203613 9.57001 0.203613C4.54959 0.203613 0.479736 4.27347 0.479736 9.29389C0.479736 14.3143 4.54959 18.3842 9.57001 18.3842Z" fill="#00AFE9"/>
<path id="Vector_2" d="M12.6442 6.99634L8.74365 10.8969L7.32226 9.47551C7.26552 9.41461 7.19709 9.36577 7.12107 9.33189C7.04504 9.29802 6.96297 9.2798 6.87975 9.27834C6.79653 9.27687 6.71387 9.29218 6.63669 9.32335C6.55952 9.35452 6.48941 9.40092 6.43056 9.45977C6.3717 9.51863 6.3253 9.58873 6.29413 9.66591C6.26296 9.74308 6.24765 9.82574 6.24912 9.90896C6.25059 9.99218 6.2688 10.0743 6.30268 10.1503C6.33655 10.2263 6.3854 10.2947 6.44629 10.3515L8.30566 12.2109C8.3631 12.2685 8.43135 12.3143 8.50651 12.3455C8.58167 12.3767 8.66226 12.3928 8.74365 12.3928C8.82504 12.3928 8.90563 12.3767 8.98079 12.3455C9.05595 12.3143 9.1242 12.2685 9.18164 12.2109L13.5202 7.87231C13.5811 7.81557 13.6299 7.74714 13.6638 7.67112C13.6977 7.59509 13.7159 7.51302 13.7173 7.4298C13.7188 7.34658 13.7035 7.26391 13.6723 7.18674C13.6412 7.10956 13.5948 7.03946 13.5359 6.98061C13.4771 6.92175 13.407 6.87535 13.3298 6.84418C13.2526 6.81301 13.1699 6.7977 13.0867 6.79917C13.0035 6.80064 12.9214 6.81885 12.8454 6.85273C12.7694 6.8866 12.7009 6.93544 12.6442 6.99634Z" fill="white" stroke="white" stroke-width="0.413194"/>
</g>
</g>
<defs>
<clipPath id="clip0_1_809">
<rect width="18.1806" height="19.0069" fill="white" transform="translate(0.479736 0.0522461)"/>
</clipPath>
</defs>
</svg>
