<svg width="86" height="86" viewBox="0 0 86 86" fill="none" xmlns="http://www.w3.org/2000/svg">
<g id="curve-arrow.svg">
<g id="Group">
<g id="Group_2">
<path id="Vector" d="M78.5483 58.7579C78.1929 58.7579 77.8605 58.5329 77.7411 58.1775C77.5903 57.7317 77.8298 57.2484 78.2764 57.0975C79.018 56.8478 79.4229 56.6884 79.4339 56.6833C79.8746 56.5085 80.3673 56.7242 80.5403 57.1614C80.7142 57.5987 80.5003 58.0939 80.063 58.2678C80.063 58.2678 79.6274 58.4408 78.8202 58.7136C78.7307 58.7434 78.6378 58.7579 78.5483 58.7579Z" fill="black"/>
</g>
<g id="Group_3">
<path id="Vector_2" d="M77.7434 58.18C77.59 57.7368 77.8295 57.251 78.2719 57.0975C78.7236 56.9526 79.2018 57.1913 79.3552 57.6345C79.5087 58.0778 79.2692 58.5636 78.8183 58.717C78.7322 58.7426 78.6393 58.7596 78.5455 58.7596C78.196 58.7596 77.8636 58.538 77.7434 58.18Z" fill="black"/>
</g>
<g id="Group_4">
<path id="Vector_3" d="M58.1647 62.0324C57.6959 62.0324 57.3123 61.6573 57.3123 61.1885C57.3123 60.7112 57.6959 60.3361 58.1647 60.3361C59.0349 60.3276 59.895 60.3106 60.7218 60.2765C61.2076 60.2424 61.592 60.6259 61.6082 61.0947V61.1374C61.5997 61.5891 61.2417 61.9556 60.79 61.9812C59.9546 62.0153 59.0682 62.0324 58.1647 62.0324ZM55.5734 61.9812C55.5649 61.9812 55.5487 61.9812 55.5394 61.9812C54.6785 61.9471 53.792 61.8874 52.9141 61.8107C52.4708 61.7766 52.1299 61.3931 52.1299 60.9584C52.1299 60.9328 52.1392 60.9072 52.1392 60.8902C52.1819 60.4214 52.5825 60.0719 53.059 60.1145C53.9028 60.1912 54.7637 60.2424 55.6075 60.2765C56.0593 60.302 56.4258 60.6686 56.4258 61.1203V61.1715C56.4088 61.6232 56.0337 61.9812 55.5734 61.9812ZM63.3386 61.8193C62.8945 61.8193 62.5288 61.4698 62.4947 61.0351C62.4862 61.0095 62.4862 60.9925 62.4862 60.9669C62.4862 60.5237 62.8263 60.1486 63.2704 60.1145C64.1142 60.0463 64.9751 59.9611 65.819 59.8588C66.2792 59.7991 66.7054 60.1401 66.7642 60.6004C66.7642 60.6345 66.7736 60.6686 66.7736 60.7026C66.7642 61.1203 66.4668 61.4698 66.0568 61.538L66.0227 61.5465C66.0056 61.5465 65.9801 61.555 65.9639 61.555C65.12 61.6573 64.2591 61.7425 63.4067 61.8107C63.3888 61.8193 63.3641 61.8193 63.3386 61.8193ZM50.4166 61.5294C50.374 61.5294 50.3314 61.5295 50.2973 61.5209C49.4193 61.4016 48.5491 61.2652 47.7146 61.1118L47.7061 61.0266V61.0692L47.6967 61.1118C47.2884 61.0351 46.9986 60.6771 46.9986 60.2679C46.9986 60.2168 47.0071 60.1657 47.0156 60.1145C47.0924 59.6628 47.5526 59.3474 48.0044 59.4326C48.8227 59.586 49.675 59.7139 50.5274 59.8332C50.9451 59.8929 51.269 60.2594 51.2604 60.6856C51.2604 60.7197 51.2605 60.7538 51.2519 60.7964C51.2008 61.2141 50.8343 61.5294 50.4166 61.5294ZM68.4869 61.1885C68.0692 61.1885 67.7112 60.8902 67.643 60.4725C67.6345 60.4214 67.6345 60.3873 67.6345 60.3447C67.626 59.927 67.9328 59.5605 68.3505 59.5008C69.1688 59.3644 70.0126 59.211 70.865 59.0405C71.3253 58.9553 71.7856 59.2621 71.8708 59.7139C71.8793 59.7736 71.8887 59.8247 71.8887 59.8844C71.8887 60.285 71.598 60.6345 71.206 60.7112C71.1889 60.7197 71.1812 60.7197 71.1812 60.7197C70.3289 60.8902 69.4671 61.0436 68.6241 61.18C68.5721 61.1885 68.5295 61.1885 68.4869 61.1885ZM45.3194 60.5918C45.2512 60.5918 45.183 60.5833 45.1148 60.5663C44.254 60.3617 43.3922 60.1316 42.5748 59.8929C42.2083 59.7821 41.9534 59.4411 41.9611 59.0661C41.9611 58.9894 41.9696 58.9127 41.9952 58.836C42.123 58.3927 42.6089 58.12 43.0521 58.2563C43.861 58.495 44.6972 58.7166 45.5155 58.9041C45.899 58.9979 46.1726 59.3389 46.1726 59.7395C46.1726 59.8077 46.1633 59.8673 46.1471 59.9355C46.0525 60.3191 45.7115 60.5918 45.3194 60.5918ZM73.567 60.1742C73.1664 60.1742 72.834 59.9099 72.7402 59.5178C72.7223 59.4582 72.7146 59.3985 72.7146 59.3303C72.7061 58.9297 72.9789 58.5888 73.371 58.495C74.2148 58.2904 75.0416 58.0773 75.8428 57.8472C76.2776 57.7279 76.7719 57.9921 76.8904 58.4353C76.9586 58.657 76.9339 58.8871 76.8137 59.0831C76.7114 59.2792 76.5239 59.4241 76.3023 59.4923C75.4755 59.7224 74.6231 59.944 73.7622 60.1486C73.7034 60.1657 73.6352 60.1742 73.567 60.1742ZM40.3407 59.1343C40.264 59.1343 40.1958 59.1172 40.1191 59.1002L40.0594 59.0831C40.0424 59.0746 40.0253 59.0746 40.0083 59.0661C39.1985 58.7763 38.3888 58.4694 37.6046 58.137C37.2807 58.0092 37.0761 57.7023 37.0761 57.3614C37.0761 57.242 37.094 57.1312 37.1358 57.0289C37.3148 56.6027 37.8271 56.3896 38.2533 56.5686C39.0374 56.8925 39.8301 57.1909 40.6314 57.4722C40.9638 57.5915 41.1931 57.9154 41.1931 58.2734C41.2025 58.3671 41.1846 58.4694 41.1505 58.5632C41.032 58.9041 40.7081 59.1343 40.3407 59.1343ZM35.5598 57.1483C35.4319 57.1483 35.3126 57.1142 35.1924 57.063C34.4082 56.688 33.624 56.2788 32.8484 55.8527C32.5765 55.6992 32.4051 55.4094 32.4137 55.094C32.4137 54.9577 32.4477 54.8128 32.5159 54.6934C32.7376 54.2928 33.2745 54.1394 33.6752 54.361C34.3997 54.7616 35.1574 55.1537 35.9331 55.5287C36.2323 55.6737 36.4113 55.9635 36.4113 56.2959C36.4113 56.4237 36.3857 56.5516 36.3252 56.6624C36.1897 56.9607 35.8922 57.1483 35.5598 57.1483ZM31.0337 54.6423C30.8726 54.6423 30.7183 54.5997 30.5828 54.5144C29.8318 54.0371 29.0996 53.5512 28.3922 53.0483C28.1612 52.8864 28.0256 52.6222 28.0256 52.3494C28.0256 52.1704 28.0845 51.9999 28.1867 51.855C28.4424 51.4885 29.005 51.3947 29.3715 51.6505C30.0364 52.1278 30.7277 52.5881 31.4854 53.0654C31.7326 53.2188 31.886 53.4916 31.886 53.7814C31.886 53.9433 31.8434 54.1053 31.759 54.2417C31.5962 54.4889 31.3226 54.6423 31.0337 54.6423ZM26.8059 51.6419C26.6184 51.6419 26.4394 51.5823 26.2945 51.4715L26.2766 51.4629C26.268 51.4544 26.2519 51.4374 26.2425 51.4288C25.5862 50.9089 24.9298 50.3549 24.2999 49.7923C24.2905 49.7923 24.282 49.7838 24.2658 49.7752L24.1797 49.6985H24.1976C24.0527 49.5366 23.976 49.332 23.976 49.1189C23.976 48.9143 24.0527 48.7183 24.1891 48.5649C24.4874 48.2239 25.0585 48.1898 25.3901 48.4882C26.0209 49.0422 26.678 49.5962 27.342 50.1247L27.4358 50.2014H27.4188C27.5798 50.3634 27.6651 50.5765 27.6566 50.7981C27.6566 50.9941 27.5977 51.1731 27.4776 51.3266C27.3173 51.5311 27.0701 51.6419 26.8059 51.6419ZM22.9361 48.2154C22.7145 48.2154 22.5014 48.1216 22.3395 47.9682C21.7437 47.3801 21.1206 46.7408 20.5077 46.0759C20.3713 45.9225 20.2861 45.7179 20.2861 45.5049C20.2861 45.2577 20.3884 45.0275 20.558 44.8656C20.8913 44.5672 21.4624 44.5843 21.7684 44.9167C22.3309 45.5304 22.9199 46.1441 23.5251 46.7408L23.5336 46.7493C23.6956 46.9113 23.7894 47.1244 23.7894 47.3545C23.7894 47.5846 23.7041 47.7977 23.5422 47.9597C23.3794 48.1216 23.1663 48.2154 22.9361 48.2154ZM19.4329 44.3968C19.1763 44.3968 18.9385 44.286 18.7757 44.0899C18.2131 43.4165 17.6591 42.7176 17.1391 42.0357C17.0283 41.8908 16.9687 41.7118 16.9687 41.5328C16.9687 41.26 17.0889 41.0043 17.3096 40.8424C17.6761 40.5696 18.2217 40.6463 18.5021 41.0043C18.9965 41.6607 19.5087 42.2999 20.0193 42.9136L20.0875 42.9989C20.2154 43.1523 20.2835 43.3484 20.2835 43.5444C20.2835 43.8001 20.1727 44.0388 19.9767 44.2007C19.825 44.3286 19.6366 44.3968 19.4329 44.3968ZM16.3047 40.2798C16.0234 40.2798 15.7583 40.1434 15.6057 39.9133C15.0858 39.1547 14.6084 38.4387 14.1567 37.7227C14.0629 37.5778 14.0203 37.4244 14.0203 37.2624C14.0288 36.9641 14.1746 36.6999 14.4218 36.5464C14.8045 36.2992 15.3509 36.4271 15.5981 36.8107C16.0583 37.5352 16.5271 38.2512 17.0036 38.9416C17.1059 39.078 17.1579 39.2399 17.1579 39.4104C17.1579 39.7002 17.0215 39.9644 16.7905 40.1264C16.6456 40.2201 16.4743 40.2798 16.3047 40.2798ZM13.5345 35.8986C13.2353 35.8986 12.9463 35.7367 12.8014 35.4724C12.3497 34.7053 11.9235 33.9296 11.5314 33.1796C11.4632 33.0602 11.4291 32.9153 11.4291 32.7789C11.4291 32.4636 11.6081 32.1823 11.8809 32.0289C12.2815 31.8158 12.8185 31.9862 13.0316 32.3868C13.4492 33.1625 13.8669 33.9211 14.276 34.6201C14.3442 34.7479 14.3877 34.9013 14.3877 35.0462C14.3877 35.3531 14.2257 35.6344 13.9615 35.7878C13.8328 35.8645 13.6879 35.8986 13.5345 35.8986ZM11.1052 31.3299C10.7728 31.3299 10.4838 31.1424 10.3389 30.8526C9.93745 30.0258 9.57946 29.2501 9.22998 28.4745C9.18736 28.3637 9.16179 28.2443 9.16179 28.125C9.16179 27.7926 9.35784 27.4857 9.66555 27.3493C10.0824 27.1618 10.6032 27.3664 10.7898 27.784C11.1572 28.5938 11.5152 29.3695 11.8732 30.1025C11.932 30.2218 11.9584 30.3412 11.9584 30.469C11.9584 30.8014 11.7794 31.0998 11.4811 31.2447C11.3601 31.2958 11.2331 31.3299 11.1052 31.3299ZM8.99132 26.5992C8.64185 26.5992 8.33414 26.3947 8.20714 26.0708C8.20714 26.0708 8.18924 26.0367 8.18924 26.0282H8.18157C8.01961 25.5934 8.22418 25.0991 8.65037 24.9286C9.08508 24.7496 9.58798 24.9627 9.76698 25.3889L9.77635 25.423C9.8275 25.5338 9.84454 25.6446 9.84454 25.7554C9.84454 26.0963 9.63145 26.4032 9.31607 26.5396C9.21294 26.5822 9.10213 26.5992 8.99132 26.5992Z" fill="black"/>
</g>
<g id="Group_5">
<path id="Vector_4" d="M8.97703 26.5588C8.6412 26.5588 8.32326 26.3594 8.18859 26.0295C8.02664 25.6348 7.86554 25.2351 7.707 24.831C7.53482 24.3929 7.75047 23.8986 8.18773 23.7255C8.625 23.5525 9.12108 23.7681 9.29326 24.2063C9.44925 24.6018 9.60608 24.9939 9.76548 25.3808C9.94447 25.8164 9.73649 26.3142 9.30093 26.4932C9.19439 26.5383 9.08528 26.5588 8.97703 26.5588Z" fill="black"/>
</g>
</g>
<g id="Group_6">
<path id="Vector_5" d="M6.82292 30.7637C6.75899 30.7637 6.69421 30.7569 6.62858 30.7415C6.17085 30.635 5.88531 30.1764 5.99271 29.7187L7.66932 22.5195L13.7442 26.5871C14.1354 26.8496 14.2403 27.3789 13.9777 27.7693C13.7143 28.1605 13.1859 28.2645 12.7946 28.0037L8.76888 25.3076L7.65142 30.1039C7.56022 30.4986 7.20989 30.7637 6.82292 30.7637Z" fill="black"/>
</g>
</g>
</svg>
