<svg width="86" height="38" viewBox="0 0 86 38" fill="none" xmlns="http://www.w3.org/2000/svg">
<g id="dash-arrow.svg" clip-path="url(#clip0_1_465)">
<g id="Group">
<path id="Vector" opacity="0.97" fill-rule="evenodd" clip-rule="evenodd" d="M22.6144 0.551514C24.4599 0.551514 26.3054 0.551514 28.1509 0.551514C29.4099 0.613521 30.6545 0.817387 31.8849 1.16311C32.1636 1.49525 32.1422 1.79568 31.8205 2.06441C31.2469 2.18709 30.6675 2.27293 30.0823 2.32192C28 2.45207 25.9184 2.58082 23.8376 2.7082C23.1741 2.7824 22.6162 3.06138 22.1637 3.54512C21.2251 3.96115 20.6135 3.67145 20.3289 2.67601C20.1866 2.02768 20.3905 1.52339 20.9405 1.16311C21.4715 0.861187 22.0294 0.657322 22.6144 0.551514Z" fill="#040707"/>
</g>
<g id="Group_2">
<path id="Vector_2" opacity="0.964" fill-rule="evenodd" clip-rule="evenodd" d="M38.3865 0.938721C39.5504 1.05256 40.6877 1.29934 41.7986 1.67907C45.848 2.96748 49.5497 4.8881 52.9039 7.44096C53.1393 7.97858 52.9783 8.32191 52.4211 8.47101C49.2106 6.65155 45.8415 5.18157 42.3136 4.06108C40.927 3.64468 39.5321 3.25841 38.129 2.90227C37.7051 2.6146 37.5656 2.2176 37.7106 1.71126C37.8352 1.36155 38.0605 1.10403 38.3865 0.938721Z" fill="#040707"/>
</g>
<g id="Group_3">
<path id="Vector_3" opacity="0.971" fill-rule="evenodd" clip-rule="evenodd" d="M0.468506 8.21291C0.468506 7.89102 0.468506 7.56913 0.468506 7.24724C0.927768 6.59777 1.52863 6.11493 2.27111 5.79872C5.79312 4.63186 9.31245 3.45159 12.8292 2.2579C13.5278 2.17262 13.914 2.48379 13.988 3.19139C13.9571 3.43559 13.8498 3.63946 13.6661 3.80298C10.6067 5.25762 7.4951 6.58811 4.33122 7.79445C3.58801 8.1336 2.92277 8.58425 2.33548 9.1464C1.70161 9.38351 1.17585 9.244 0.758209 8.72794C0.668304 8.54421 0.571736 8.37257 0.468506 8.21291Z" fill="#040707"/>
</g>
<g id="Group_4">
<path id="Vector_4" opacity="0.962" fill-rule="evenodd" clip-rule="evenodd" d="M57.25 10.0798C58.247 10.2012 59.1698 10.5338 60.0182 11.0777C62.9817 13.0741 65.7396 15.338 68.2909 17.8696C68.4377 18.3079 68.2986 18.6191 67.8724 18.8031C67.6709 18.854 67.4778 18.8325 67.293 18.7387C64.6613 16.496 61.7857 14.6076 58.6663 13.0734C57.8939 12.6494 57.1965 12.1237 56.574 11.4962C56.3364 10.7913 56.5617 10.3192 57.25 10.0798Z" fill="#040707"/>
</g>
<g id="Group_5">
<path id="Vector_5" opacity="0.974" fill-rule="evenodd" clip-rule="evenodd" d="M85.7054 22.119C85.7054 22.3336 85.7054 22.5482 85.7054 22.7628C85.6321 22.9287 85.5142 23.0574 85.3514 23.1491C85.0623 24.6366 84.7404 26.1173 84.3857 27.5912C83.7619 29.828 83.2037 32.0813 82.7118 34.3509C82.4724 35.3986 81.9895 36.3107 81.2633 37.087C81.0528 37.2241 80.8384 37.3421 80.6195 37.4411C80.1689 37.4411 79.7182 37.4411 79.2676 37.4411C78.6875 37.2045 78.1294 36.9148 77.5937 36.572C74.8641 34.2743 72.0527 32.0854 69.1602 30.0054C68.922 29.7456 68.6644 29.5095 68.3876 29.2972C66.4002 29.6272 65.5736 28.801 65.909 26.8186C66.3533 25.9797 67.0505 25.6256 68.0013 25.7564C68.3715 25.8126 68.7147 25.9414 69.0314 26.1427C70.1065 26.7872 71.1366 27.4954 72.1216 28.2672C74.1508 29.9639 76.1897 31.6484 78.2375 33.3209C78.2588 33.2994 78.2807 33.2779 78.3019 33.2565C76.5836 29.6171 74.2551 26.4196 71.3168 23.6641C70.8778 22.878 71.0606 22.2879 71.8641 21.8937C72.2941 21.7959 72.6804 21.8817 73.0229 22.1512C76.3133 25.2845 78.7056 29.0078 80.2011 33.3209C81.5865 29.7004 82.8316 26.0308 83.935 22.3121C84.2518 21.7618 84.7134 21.5579 85.3192 21.7005C85.4627 21.8334 85.5915 21.9728 85.7054 22.119Z" fill="#040707"/>
</g>
</g>
<defs>
<clipPath id="clip0_1_465">
<rect width="85.2372" height="36.8889" fill="white" transform="translate(0.5 0.58374)"/>
</clipPath>
</defs>
</svg>
