<svg width="17" height="17" viewBox="0 0 17 17" fill="none" xmlns="http://www.w3.org/2000/svg">
<g id="dislike" clip-path="url(#clip0_2_83)">
<path id="Vector" d="M0.23999 8.69983V1.69983C0.23999 1.56722 0.292669 1.44004 0.386437 1.34628C0.480205 1.25251 0.607382 1.19983 0.73999 1.19983H5.23999V9.19983H0.73999C0.607382 9.19983 0.480205 9.14715 0.386437 9.05338C0.292669 8.95961 0.23999 8.83244 0.23999 8.69983Z" fill="#C3C3C3"/>
<path id="Vector_2" d="M14.24 10.1998H10.24V13.1998C10.24 14.3028 9.34299 15.1998 8.23999 15.1998H6.73999C6.60738 15.1998 6.48021 15.1472 6.38644 15.0534C6.29267 14.9596 6.23999 14.8324 6.23999 14.6998V12.3328L4.30599 8.94783C4.26249 8.87244 4.23971 8.78687 4.23999 8.69983V1.69983C4.23999 1.56722 4.29267 1.44004 4.38644 1.34628C4.48021 1.25251 4.60738 1.19983 4.73999 1.19983H12.765C13.1518 1.19997 13.5302 1.31228 13.8545 1.52313C14.1788 1.73399 14.435 2.03435 14.592 2.38783L16.196 5.99683C16.225 6.06058 16.24 6.1298 16.24 6.19983V8.19983C16.24 9.30283 15.343 10.1998 14.24 10.1998Z" fill="#D8D8D8"/>
</g>
<defs>
<clipPath id="clip0_2_83">
<rect width="16" height="16" fill="white" transform="translate(0.23999 0.199829)"/>
</clipPath>
</defs>
</svg>
