<svg width="17" height="17" viewBox="0 0 17 17" fill="none" xmlns="http://www.w3.org/2000/svg">
<g id="dislike" clip-path="url(#clip0_2_118)">
<path id="Vector" d="M0.23999 8.69971V1.69971C0.23999 1.5671 0.292669 1.43992 0.386437 1.34615C0.480205 1.25239 0.607382 1.19971 0.73999 1.19971H5.23999V9.19971H0.73999C0.607382 9.19971 0.480205 9.14703 0.386437 9.05326C0.292669 8.95949 0.23999 8.83232 0.23999 8.69971Z" fill="#DC2626"/>
<path id="Vector_2" d="M14.24 10.1997H10.24V13.1997C10.24 14.3027 9.34299 15.1997 8.23999 15.1997H6.73999C6.60738 15.1997 6.48021 15.147 6.38644 15.0533C6.29267 14.9595 6.23999 14.8323 6.23999 14.6997V12.3327L4.30599 8.94771C4.26249 8.87232 4.23971 8.78675 4.23999 8.69971V1.69971C4.23999 1.5671 4.29267 1.43992 4.38644 1.34615C4.48021 1.25239 4.60738 1.19971 4.73999 1.19971H12.765C13.1518 1.19985 13.5302 1.31215 13.8545 1.52301C14.1788 1.73386 14.435 2.03422 14.592 2.38771L16.196 5.99671C16.225 6.06046 16.24 6.12968 16.24 6.19971V8.19971C16.24 9.30271 15.343 10.1997 14.24 10.1997Z" fill="#DC2626" fill-opacity="0.88"/>
</g>
<defs>
<clipPath id="clip0_2_118">
<rect width="16" height="16" fill="white" transform="translate(0.23999 0.199707)"/>
</clipPath>
</defs>
</svg>
