<svg width="13" height="13" viewBox="0 0 13 13" fill="none" xmlns="http://www.w3.org/2000/svg">
<g id="Button - Add to wishlist" clip-path="url(#clip0_2_74)">
<path id="Vector" d="M8.80432 1.26611C9.25745 1.26611 9.68713 1.35205 10.0934 1.52393C10.4996 1.6958 10.8512 1.93213 11.1481 2.23291C11.4449 2.53369 11.6832 2.88721 11.8629 3.29346C12.0348 3.69189 12.1207 4.12158 12.1207 4.58252C12.1207 5.34033 11.8082 6.1333 11.1832 6.96143C10.5582 7.78955 9.87073 8.54932 9.12073 9.24072C8.37073 9.93213 7.68323 10.5044 7.05823 10.9575C6.43323 11.4106 6.12073 11.6372 6.12073 11.6372C6.12073 11.6372 5.80823 11.4185 5.18323 10.981C4.55823 10.5435 3.87073 9.98291 3.12073 9.29932C2.37073 8.61572 1.68323 7.85596 1.05823 7.02002C0.433228 6.19189 0.120728 5.37939 0.120728 4.58252C0.120728 4.01221 0.206665 3.52002 0.37854 3.10596C0.558228 2.68408 0.796509 2.33838 1.09338 2.06885C1.39026 1.79932 1.74182 1.59814 2.14807 1.46533C2.54651 1.33252 2.9762 1.26611 3.43713 1.26611C3.99182 1.26611 4.50159 1.39111 4.96643 1.64111C5.43127 1.89111 5.81604 2.22314 6.12073 2.63721C6.42542 2.22314 6.81018 1.89111 7.27502 1.64111C7.73987 1.39111 8.24963 1.26611 8.80432 1.26611Z" fill="#01693A"/>
</g>
<defs>
<clipPath id="clip0_2_74">
<rect width="12.24" height="12" fill="white" transform="matrix(1 0 0 -1 0 12.1997)"/>
</clipPath>
</defs>
</svg>
