<svg width="15" height="16" viewBox="0 0 15 16" fill="none" xmlns="http://www.w3.org/2000/svg">
<g id="Icon" clip-path="url(#clip0_1_161)">
<path id="Vector" d="M14.786 5.89585L12.4824 2.67071C12.4344 2.61312 12.3792 2.56513 12.3168 2.52673C12.2544 2.48834 12.1848 2.46914 12.108 2.46914H2.89331C2.81653 2.46914 2.74694 2.48834 2.68454 2.52673C2.62215 2.56513 2.56696 2.61312 2.51897 2.67071L0.215294 5.89585C0.196097 5.93425 0.179299 5.97504 0.164901 6.01824C0.150503 6.06143 0.138505 6.10222 0.128906 6.14062C0.128906 6.64935 0.308881 7.08609 0.66883 7.45083C1.02878 7.81558 1.46312 7.99796 1.97185 7.99796C2.25021 7.99796 2.50697 7.94276 2.74214 7.83238C2.9773 7.722 3.18127 7.57082 3.35405 7.37884C3.52682 7.57082 3.7308 7.722 3.96596 7.83238C4.20113 7.94276 4.45789 7.99796 4.73625 7.99796C5.01461 7.99796 5.27138 7.94276 5.50654 7.83238C5.74171 7.722 5.94568 7.57082 6.11846 7.37884C6.29123 7.57082 6.4952 7.722 6.73037 7.83238C6.96554 7.94276 7.2223 7.99796 7.50066 7.99796C7.77902 7.99796 8.03579 7.94276 8.27095 7.83238C8.50612 7.722 8.71009 7.57082 8.88287 7.37884C9.05564 7.57082 9.25961 7.722 9.49478 7.83238C9.72995 7.94276 9.98671 7.99796 10.2651 7.99796C10.5434 7.99796 10.8002 7.94276 11.0354 7.83238C11.2705 7.722 11.4745 7.57082 11.6473 7.37884C11.8201 7.57082 12.024 7.722 12.2592 7.83238C12.4944 7.94276 12.7511 7.99796 13.0295 7.99796C13.5382 7.99796 13.9725 7.81558 14.3325 7.45083C14.6924 7.08609 14.8724 6.64935 14.8724 6.14062C14.8628 6.10222 14.8508 6.06143 14.8364 6.01824C14.822 5.97504 14.8052 5.93425 14.786 5.89585ZM13.0295 8.91943C12.7895 8.91943 12.5519 8.88823 12.3168 8.82584C12.0816 8.76345 11.8584 8.66986 11.6473 8.54508C11.2345 8.79464 10.7738 8.91943 10.2651 8.91943C9.75634 8.91943 9.29561 8.79464 8.88287 8.54508C8.47013 8.79464 8.00939 8.91943 7.50066 8.91943C6.99193 8.91943 6.5312 8.79464 6.11846 8.54508C5.70572 8.79464 5.24498 8.91943 4.73625 8.91943C4.22753 8.91943 3.76679 8.79464 3.35405 8.54508C3.0085 8.74665 2.63175 8.86183 2.22381 8.89063C1.81587 8.91943 1.42472 8.87143 1.05038 8.74665V13.5268C1.05038 13.7859 1.14156 14.0043 1.32394 14.1819C1.50631 14.3595 1.72228 14.4482 1.97185 14.4482H9.3436V9.84089H12.108V14.4482H13.0295C13.279 14.4482 13.495 14.3595 13.6774 14.1819C13.8598 14.0043 13.9509 13.7859 13.9509 13.5268V8.76105C13.807 8.80904 13.6582 8.84744 13.5046 8.87623C13.351 8.90503 13.1927 8.91943 13.0295 8.91943ZM6.57919 12.6053H2.89331V9.84089H6.57919V12.6053Z" fill="white"/>
</g>
<defs>
<clipPath id="clip0_1_161">
<rect width="14.7435" height="14.7435" fill="white" transform="matrix(1 0 0 -1 0.128906 15.5278)"/>
</clipPath>
</defs>
</svg>
