<svg width="13" height="18" viewBox="0 0 13 18" fill="none" xmlns="http://www.w3.org/2000/svg">
<g id="Icon">
<path id="Vector" d="M8.13806 12.208C8.1163 12.1971 8.08638 12.1754 8.0483 12.1427C8.01021 12.1101 7.96941 12.072 7.92589 12.0285C7.84973 11.9523 7.79805 11.8762 7.77084 11.8C7.74364 11.7238 7.73548 11.6259 7.74636 11.5062C7.75724 11.3757 7.79532 11.2614 7.86061 11.1635C7.92589 11.0656 8.13262 10.8262 8.4808 10.4454L9.10098 9.75991L1.51184 9.74359L1.41391 9.69462C1.33775 9.66198 1.27519 9.62118 1.22623 9.57222C1.17726 9.52326 1.13102 9.46069 1.0875 9.38453C1.05486 9.31925 1.03582 9.27028 1.03038 9.23764C1.02494 9.205 1.02222 9.14516 1.02222 9.05811C1.02222 8.97107 1.02494 8.91123 1.03038 8.87859C1.03582 8.84594 1.04942 8.80242 1.07118 8.74802C1.1147 8.67186 1.1555 8.61201 1.19358 8.56849C1.23167 8.52497 1.28879 8.48145 1.36495 8.43793L1.4792 8.35632H9.10098L8.4808 7.65453C8.13262 7.27371 7.92589 7.03706 7.86061 6.94458C7.79532 6.85209 7.75724 6.73513 7.74636 6.59368C7.73548 6.48488 7.74364 6.39239 7.77084 6.31623C7.79805 6.24007 7.84973 6.15846 7.92589 6.07142C8.00205 5.98437 8.0755 5.92725 8.14622 5.90005C8.21694 5.87285 8.30671 5.85925 8.41551 5.85925C8.54608 5.87013 8.67121 5.92997 8.79089 6.03878C8.91058 6.14758 9.29683 6.56648 9.94966 7.29547C10.6351 8.03535 11.0296 8.47329 11.1329 8.60929C11.2363 8.7453 11.288 8.89491 11.288 9.05811C11.288 9.21044 11.239 9.35189 11.1411 9.48245C11.0432 9.61302 10.6515 10.0537 9.96598 10.8044C9.48724 11.3267 9.15811 11.6803 8.97858 11.8653C8.79905 12.0503 8.69297 12.1536 8.66032 12.1754C8.59504 12.208 8.508 12.2271 8.39919 12.2325C8.29039 12.2379 8.20334 12.2298 8.13806 12.208Z" fill="#222222"/>
</g>
</svg>
