<svg width="21" height="19" viewBox="0 0 21 19" fill="none" xmlns="http://www.w3.org/2000/svg">
<g id="SVG">
<g id="Group">
<path id="Vector" d="M7.61807 11.3598H8.44446C8.8828 11.3598 9.30319 11.1857 9.61315 10.8757C9.9231 10.5657 10.0972 10.1453 10.0972 9.707C10.0972 10.1453 10.2714 10.5657 10.5813 10.8757C10.8913 11.1857 11.3117 11.3598 11.75 11.3598H12.5764M7.61807 15.4917H8.44446C8.8828 15.4917 9.30319 15.3176 9.61315 15.0076C9.9231 14.6977 10.0972 14.2773 10.0972 13.8389C10.0972 14.2773 10.2714 14.6977 10.5813 15.0076C10.8913 15.3176 11.3117 15.4917 11.75 15.4917H12.5764M5.96529 17.5577V9.29381C5.96529 8.85547 6.13942 8.43508 6.44938 8.12512C6.75933 7.81516 7.17973 7.64103 7.61807 7.64103M14.2292 17.5577V9.29381C14.2292 8.85547 14.055 8.43508 13.7451 8.12512C13.4351 7.81516 13.0147 7.64103 12.5764 7.64103M19.1875 4.74867V5.81389C19.1875 6.46656 18.9943 7.10462 18.6322 7.64764L16.7083 10.5334V17.5577M3.48612 17.5577V10.5334L1.56229 7.64682C1.20005 7.10356 1.00681 6.46519 1.00696 5.81223V4.7495M9.27085 1.44312C9.27085 3.72395 7.20487 4.74867 5.1389 4.74867C3.07293 4.74867 1.00696 3.72395 1.00696 1.44312M10.9236 1.44312C10.9236 3.72395 12.9896 4.74867 15.0556 4.74867C17.1215 4.74867 19.1875 3.72395 19.1875 1.44312" stroke="black" stroke-width="0.826389" stroke-linecap="round" stroke-linejoin="round"/>
</g>
</g>
</svg>
