<svg width="22" height="19" viewBox="0 0 22 19" fill="none" xmlns="http://www.w3.org/2000/svg">
<g id="SVG">
<path id="Vector" d="M5.24955 5.42093L6.56021 3.77724C6.69976 3.61857 6.89371 3.51798 7.10379 3.49532C7.31388 3.47265 7.52482 3.52956 7.695 3.65481C7.86518 3.78006 7.98223 3.96455 8.02305 4.17187C8.06387 4.37919 8.02549 4.59428 7.91549 4.77469L6.63376 6.76794M6.63376 6.76794L6.1842 11.0346C7.5494 9.48097 11.3665 9.48097 12.2466 11.3131C12.3014 10.1971 12.7973 9.14851 13.6252 8.3981C14.0351 8.02654 14.5142 7.73936 15.0351 7.55295C15.556 7.36655 16.1086 7.28457 16.6612 7.3117C17.2138 7.33883 17.7556 7.47454 18.2558 7.71108C18.7559 7.94761 19.2046 8.28035 19.5761 8.69028C19.9477 9.10021 20.2349 9.57931 20.4213 10.1002C20.6077 10.6211 20.6897 11.1737 20.6625 11.7263C20.6625 20.5637 1.6936 18.0134 1.6936 13.065C1.4242 11.7263 2.87038 6.42664 3.49017 4.31604C3.66465 3.76062 3.95189 3.24719 4.33392 2.80788C4.57856 2.51113 4.88391 2.27019 5.22943 2.10128C5.57495 1.93237 5.95264 1.8394 6.33708 1.82861H8.01465C8.3656 1.83085 8.71044 1.92057 9.01798 2.08964C9.32552 2.25872 9.58605 2.50181 9.77598 2.79692C9.96591 3.09204 10.0793 3.42985 10.1058 3.7798C10.1323 4.12975 10.0711 4.48079 9.92774 4.80113C9.7697 5.26713 9.48704 5.68094 9.11045 5.99765C8.73386 6.31437 8.27772 6.52189 7.79153 6.5977L6.63376 6.76794Z" stroke="black" stroke-width="0.826389" stroke-linecap="round" stroke-linejoin="round"/>
</g>
</svg>
