<svg width="58" height="13" viewBox="0 0 58 13" fill="none" xmlns="http://www.w3.org/2000/svg">
<g id="Icon" clip-path="url(#clip0_1_522)">
<path id="Vector" d="M6.15529 9.7661L9.70782 12.3518L8.35876 8.13599L11.9113 5.64022H7.59429L6.15529 1.32322L4.71629 5.64022H0.399292L3.95182 8.13599L2.60276 12.3518L6.15529 9.7661Z" fill="#C3C3C3"/>
<path id="Vector_2" d="M17.667 9.7661L21.2195 12.3518L19.8705 8.13599L23.423 5.64022H19.106L17.667 1.32322L16.228 5.64022H11.911L15.4635 8.13599L14.1145 12.3518L17.667 9.7661Z" fill="#C3C3C3"/>
<path id="Vector_3" d="M29.1795 9.7661L32.732 12.3518L31.3829 8.13599L34.9355 5.64022H30.6185L29.1795 1.32322L27.7405 5.64022H23.4235L26.976 8.13599L25.6269 12.3518L29.1795 9.7661Z" fill="#C3C3C3"/>
<path id="Vector_4" d="M40.6912 9.7661L44.2437 12.3518L42.8946 8.13599L46.4472 5.64022H42.1302L40.6912 1.32322L39.2522 5.64022H34.9352L38.4877 8.13599L37.1386 12.3518L40.6912 9.7661Z" fill="#C3C3C3"/>
<path id="Vector_5" d="M52.2029 9.7661L55.7554 12.3518L54.4064 8.13599L57.9589 5.64022H53.6419L52.2029 1.32322L50.7639 5.64022H46.4469L49.9994 8.13599L48.6504 12.3518L52.2029 9.7661Z" fill="#C3C3C3"/>
</g>
<defs>
<clipPath id="clip0_1_522">
<rect width="57.56" height="11.512" fill="white" transform="matrix(1 0 0 -1 0.399658 12.3516)"/>
</clipPath>
</defs>
</svg>
