<svg width="16" height="17" viewBox="0 0 16 17" fill="none" xmlns="http://www.w3.org/2000/svg">
<g id="Icon">
<path id="Vector" d="M15.5312 7.25293H12.9219L11.0469 4.75293C11.1198 4.63835 11.1771 4.51595 11.2188 4.38574C11.2604 4.25553 11.2812 4.11751 11.2812 3.97168C11.2812 3.58626 11.1432 3.25553 10.8672 2.97949C10.5911 2.70345 10.2604 2.56543 9.875 2.56543C9.48958 2.56543 9.15885 2.70345 8.88281 2.97949C8.60677 3.25553 8.46875 3.58626 8.46875 3.97168C8.46875 4.36751 8.60677 4.70085 8.88281 4.97168C9.15885 5.24251 9.48958 5.37793 9.875 5.37793C9.94792 5.37793 10.0182 5.37272 10.0859 5.3623C10.1536 5.35189 10.224 5.33626 10.2969 5.31543L11.75 7.25293H4.25L5.70312 5.31543C5.77604 5.33626 5.84635 5.35189 5.91406 5.3623C5.98177 5.37272 6.05208 5.37793 6.125 5.37793C6.51042 5.37793 6.84115 5.24251 7.11719 4.97168C7.39323 4.70085 7.53125 4.36751 7.53125 3.97168C7.53125 3.58626 7.39323 3.25553 7.11719 2.97949C6.84115 2.70345 6.51042 2.56543 6.125 2.56543C5.73958 2.56543 5.40885 2.70345 5.13281 2.97949C4.85677 3.25553 4.71875 3.58626 4.71875 3.97168C4.71875 4.11751 4.73958 4.25553 4.78125 4.38574C4.82292 4.51595 4.88021 4.63835 4.95312 4.75293L3.07812 7.25293H0.46875C0.34375 7.25293 0.234375 7.2998 0.140625 7.39355C0.046875 7.4873 0 7.59668 0 7.72168C0 7.8571 0.046875 7.96908 0.140625 8.05762C0.234375 8.14616 0.34375 8.19043 0.46875 8.19043H1.07812L1.3125 9.12793H14.6875L14.9219 8.19043H15.5312C15.6562 8.19043 15.7656 8.14616 15.8594 8.05762C15.9531 7.96908 16 7.8571 16 7.72168C16 7.59668 15.9531 7.4873 15.8594 7.39355C15.7656 7.2998 15.6562 7.25293 15.5312 7.25293ZM9.40625 3.97168C9.40625 3.84668 9.45312 3.7373 9.54688 3.64355C9.64062 3.5498 9.75 3.50293 9.875 3.50293C10 3.50293 10.1094 3.5498 10.2031 3.64355C10.2969 3.7373 10.3438 3.84668 10.3438 3.97168C10.3438 4.1071 10.2969 4.21908 10.2031 4.30762C10.1094 4.39616 10 4.44043 9.875 4.44043C9.75 4.44043 9.64062 4.39616 9.54688 4.30762C9.45312 4.21908 9.40625 4.1071 9.40625 3.97168ZM6.125 3.50293C6.25 3.50293 6.35938 3.5498 6.45312 3.64355C6.54688 3.7373 6.59375 3.84668 6.59375 3.97168C6.59375 4.1071 6.54688 4.21908 6.45312 4.30762C6.35938 4.39616 6.25 4.44043 6.125 4.44043C6 4.44043 5.89062 4.39616 5.79688 4.30762C5.70312 4.21908 5.65625 4.1071 5.65625 3.97168C5.65625 3.84668 5.70312 3.7373 5.79688 3.64355C5.89062 3.5498 6 3.50293 6.125 3.50293ZM2.6875 14.6279C2.76042 14.9404 2.92448 15.1956 3.17969 15.3936C3.4349 15.5915 3.72396 15.6904 4.04688 15.6904H11.9531C12.276 15.6904 12.5651 15.5915 12.8203 15.3936C13.0755 15.1956 13.2396 14.9404 13.3125 14.6279L14.4531 10.0654H1.54688L2.6875 14.6279ZM10.3438 11.4717C10.3438 11.3467 10.3906 11.2373 10.4844 11.1436C10.5781 11.0498 10.6875 11.0029 10.8125 11.0029C10.9375 11.0029 11.0469 11.0498 11.1406 11.1436C11.2344 11.2373 11.2812 11.3467 11.2812 11.4717V14.2842C11.2812 14.4196 11.2344 14.5316 11.1406 14.6201C11.0469 14.7087 10.9375 14.7529 10.8125 14.7529C10.6875 14.7529 10.5781 14.7087 10.4844 14.6201C10.3906 14.5316 10.3438 14.4196 10.3438 14.2842V11.4717ZM7.53125 11.4717C7.53125 11.3467 7.57812 11.2373 7.67188 11.1436C7.76562 11.0498 7.875 11.0029 8 11.0029C8.125 11.0029 8.23438 11.0498 8.32812 11.1436C8.42188 11.2373 8.46875 11.3467 8.46875 11.4717V14.2842C8.46875 14.4196 8.42188 14.5316 8.32812 14.6201C8.23438 14.7087 8.125 14.7529 8 14.7529C7.875 14.7529 7.76562 14.7087 7.67188 14.6201C7.57812 14.5316 7.53125 14.4196 7.53125 14.2842V11.4717ZM4.71875 11.4717C4.71875 11.3467 4.76562 11.2373 4.85938 11.1436C4.95312 11.0498 5.0625 11.0029 5.1875 11.0029C5.3125 11.0029 5.42188 11.0498 5.51562 11.1436C5.60938 11.2373 5.65625 11.3467 5.65625 11.4717V14.2842C5.65625 14.4196 5.60938 14.5316 5.51562 14.6201C5.42188 14.7087 5.3125 14.7529 5.1875 14.7529C5.0625 14.7529 4.95312 14.7087 4.85938 14.6201C4.76562 14.5316 4.71875 14.4196 4.71875 14.2842V11.4717Z" fill="black"/>
</g>
</svg>
