<svg width="10" height="10" viewBox="0 0 10 10" fill="none" xmlns="http://www.w3.org/2000/svg">
<g id="Icon" clip-path="url(#clip0_1_261)">
<path id="Vector" d="M3.11568 0.6341C3.11568 0.6341 3.09068 0.70285 3.04068 0.84035C2.99693 0.971601 2.93599 1.14816 2.85786 1.37004C2.77974 1.59191 2.68755 1.85285 2.5813 2.15285C2.4813 2.4466 2.37193 2.7591 2.25318 3.09035C2.13443 3.42785 2.02505 3.74348 1.92505 4.03723C1.8188 4.33723 1.72661 4.59816 1.64849 4.82004C1.57036 5.04191 1.50943 5.21848 1.46568 5.34973C1.41568 5.48098 1.39068 5.54973 1.39068 5.55598C1.38443 5.56848 1.44849 5.57629 1.58286 5.57941C1.71724 5.58254 2.11568 5.5841 2.77818 5.5841C3.32818 5.5841 3.69849 5.58566 3.88911 5.58879C4.07974 5.59191 4.17505 5.59973 4.17505 5.61223C4.17505 5.61848 4.11568 5.84504 3.99693 6.29191C3.87818 6.73879 3.73443 7.2716 3.56568 7.89035C3.39693 8.51535 3.25318 9.04973 3.13443 9.49348C3.01568 9.93723 2.9563 10.1591 2.9563 10.1591C2.96255 10.1654 3.03755 10.081 3.1813 9.90598C3.3313 9.73723 3.53443 9.50598 3.79068 9.21223C4.04693 8.91848 4.34693 8.57473 4.69068 8.18098C5.03443 7.78098 5.40005 7.3591 5.78755 6.91535L8.60943 3.64348H6.97818C6.52818 3.64348 6.14224 3.64191 5.82036 3.63879C5.49849 3.63566 5.33755 3.6341 5.33755 3.6341C5.33755 3.62785 5.39536 3.52473 5.51099 3.32473C5.62661 3.12473 5.76568 2.8841 5.92818 2.60285C6.09068 2.3216 6.2563 2.03254 6.42505 1.73566C6.5938 1.43879 6.7188 1.22472 6.80005 1.09348L7.0813 0.596601H5.10318C4.17193 0.596601 3.60943 0.598163 3.41568 0.601288C3.22193 0.604413 3.12193 0.61535 3.11568 0.6341Z" fill="#222222"/>
</g>
<defs>
<clipPath id="clip0_1_261">
<rect width="9.6" height="9.6" fill="white" transform="matrix(1 0 0 -1 0.200195 9.99976)"/>
</clipPath>
</defs>
</svg>
