<svg width="17" height="18" viewBox="0 0 17 18" fill="none" xmlns="http://www.w3.org/2000/svg">
<g id="Icon" clip-path="url(#clip0_1_497)">
<path id="Vector" d="M1.81385 2.2541C1.44389 2.61317 1.14467 2.91512 0.916165 3.15994C0.687664 3.40476 0.551652 3.55437 0.508128 3.60878C0.138175 4.18547 -0.0141586 4.85737 0.0511273 5.62448C0.116413 6.39159 0.393878 7.27023 0.883522 8.2604C1.13378 8.76092 1.42213 9.26688 1.74856 9.77829C2.08587 10.2897 2.4531 10.7984 2.85026 11.3043C3.24741 11.8103 3.67449 12.3081 4.13149 12.7978C4.58849 13.2874 5.0727 13.7607 5.5841 14.2177C6.10639 14.6965 6.63412 15.1317 7.16729 15.5234C7.68957 15.9152 8.20642 16.2579 8.71782 16.5517C9.22923 16.8455 9.72431 17.0849 10.2031 17.2698C10.6927 17.4657 11.1606 17.6072 11.6067 17.6942C11.7047 17.7051 11.8216 17.716 11.9576 17.7268C12.0936 17.7377 12.2487 17.7432 12.4228 17.7432C12.6513 17.7432 12.8145 17.7377 12.9124 17.7268C13.0104 17.716 13.1301 17.6942 13.2715 17.6616C13.4565 17.6072 13.6333 17.5419 13.802 17.4657C13.9706 17.3895 14.1202 17.3025 14.2508 17.2046C14.3052 17.161 14.463 17.0141 14.7241 16.7639C14.9853 16.5136 15.2791 16.2307 15.6055 15.9152L16.748 14.789L12.4228 10.4638L11.2966 11.5737C10.9811 11.8783 10.7036 12.1449 10.4642 12.3734C10.2248 12.6019 10.0943 12.7216 10.0725 12.7325C10.029 12.7542 9.96098 12.7651 9.86849 12.7651C9.776 12.7651 9.70255 12.7542 9.64815 12.7325C9.58286 12.6998 9.39245 12.5638 9.0769 12.3244C8.76135 12.0851 8.50565 11.8783 8.30979 11.7042C8.09217 11.5301 7.84735 11.3071 7.57532 11.035C7.29242 10.763 7.01223 10.4774 6.73477 10.1782C6.4573 9.87894 6.18256 9.57155 5.91053 9.256C5.63851 8.94046 5.40457 8.64667 5.20871 8.37465C5.11078 8.25495 5.05366 8.17335 5.03733 8.12982C5.02101 8.0863 5.01285 8.01557 5.01285 7.91764V7.70547L7.3305 5.38782L5.17607 3.23339C4.58849 2.64581 4.07981 2.13985 3.65001 1.71549C3.22021 1.29113 3.00531 1.07895 3.00531 1.07895C3.00531 1.07895 2.88834 1.1932 2.6544 1.4217C2.42046 1.6502 2.14027 1.92767 1.81385 2.2541ZM9.89297 2.51524V3.00488L10.1868 3.02121C10.4153 3.04297 10.6302 3.07289 10.8315 3.11097C11.0328 3.14906 11.2313 3.20074 11.4272 3.26603C11.808 3.3966 12.1481 3.55437 12.4473 3.73935C12.7465 3.92433 13.043 4.16371 13.3368 4.45749C13.772 4.89273 14.1093 5.3715 14.3487 5.89378C14.5881 6.41607 14.7296 6.98188 14.7731 7.59122L14.8057 7.90132H15.7687V7.75443C15.7687 7.72179 15.766 7.65922 15.7605 7.56673C15.7551 7.47424 15.7469 7.38448 15.7361 7.29743C15.6816 6.78602 15.562 6.29638 15.377 5.8285C15.192 5.36061 14.9581 4.92266 14.6752 4.51462C14.3923 4.10658 14.0549 3.73935 13.6632 3.41292C13.2824 3.09737 12.8635 2.83079 12.4065 2.61317C12.0583 2.44995 11.7047 2.3221 11.3456 2.22962C10.9865 2.13713 10.6166 2.07456 10.2357 2.04192L9.89297 2.0256V2.51524ZM9.89297 4.47382V4.96346L10.1378 4.97978C10.8559 5.05595 11.4653 5.34429 11.9658 5.84482C12.4663 6.34534 12.7492 6.94924 12.8145 7.6565L12.8472 7.90132H13.8264L13.7938 7.62386C13.7503 7.01452 13.5762 6.45143 13.2715 5.93459C12.9668 5.41774 12.5642 4.99066 12.0637 4.65335C11.7699 4.46838 11.468 4.32148 11.1579 4.21267C10.8478 4.10386 10.5186 4.03314 10.1704 4.00049L9.89297 3.98417V4.47382ZM9.89297 6.43239V6.92204L10.0888 6.95468C10.2738 6.9982 10.437 7.08797 10.5785 7.22398C10.7199 7.35999 10.807 7.52593 10.8396 7.72179L10.8886 7.90132H11.8515V7.81972C11.8515 7.72179 11.8298 7.59394 11.7863 7.43616C11.7427 7.27839 11.6938 7.13965 11.6394 7.01996C11.5523 6.84587 11.4272 6.67993 11.264 6.52216C11.1008 6.36438 10.9375 6.24741 10.7743 6.17125C10.6546 6.10596 10.5159 6.05156 10.3581 6.00803C10.2004 5.96451 10.0779 5.94275 9.9909 5.94275H9.89297V6.43239Z" fill="#00AFE9"/>
</g>
<defs>
<clipPath id="clip0_1_497">
<rect width="16.7132" height="16.7132" fill="white" transform="matrix(1 0 0 -1 0.0343018 17.4167)"/>
</clipPath>
</defs>
</svg>
