<svg width="48" height="10" viewBox="0 0 48 10" fill="none" xmlns="http://www.w3.org/2000/svg">
<g id="wave.svg" clip-path="url(#clip0_1_78)">
<g id="Group">
<path id="Vector" opacity="0.821" fill-rule="evenodd" clip-rule="evenodd" d="M18.0888 0.414307C18.7325 0.414307 19.3763 0.414307 20.02 0.414307C20.4505 0.551967 20.8797 0.739726 21.3075 0.977586C22.0048 1.67498 22.7023 2.37238 23.3997 3.06977C24.4458 3.54963 25.5187 3.60329 26.6184 3.2307C28.0815 2.57975 29.5299 1.88235 30.9637 1.13852C31.6631 0.843039 32.3605 0.601633 33.0559 0.414307C33.9679 0.414307 34.8798 0.414307 35.7918 0.414307C37.0478 0.880581 38.2817 1.44386 39.4934 2.10414C42.0754 2.86024 44.6504 2.83341 47.2183 2.02368C47.2214 2.27479 47.275 2.51619 47.3793 2.74789C47.3141 2.90004 47.2067 3.00734 47.0574 3.06977C44.727 3.85712 42.3666 3.96441 39.9762 3.39164C38.6161 2.84577 37.275 2.25567 35.9528 1.62133C34.3942 1.23002 32.8921 1.39096 31.4465 2.10414C30.0127 2.84798 28.5643 3.54537 27.1012 4.19632C24.5188 5.07008 22.4802 4.37269 20.9856 2.10414C19.7419 1.20457 18.4544 1.15092 17.1231 1.94321C15.9154 2.68134 14.6815 3.37875 13.4216 4.03539C12.0437 4.67601 10.6489 4.72965 9.23722 4.19632C8.29977 3.7545 7.3878 3.27169 6.5013 2.74789C4.33655 2.34161 2.75399 3.11946 1.75366 5.08148C1.6748 5.2896 1.64797 5.50419 1.67319 5.72522C1.27895 5.75773 0.903431 5.70408 0.546631 5.56429C0.546631 5.40335 0.546631 5.24241 0.546631 5.08148C1.69236 2.52261 3.67724 1.36924 6.5013 1.62133C7.57104 2.15225 8.64396 2.6887 9.72004 3.2307C10.8133 3.58272 11.8862 3.52908 12.9388 3.06977C14.6064 2.04845 16.3231 1.16329 18.0888 0.414307Z" fill="#1F6076"/>
</g>
<g id="Group_2">
<path id="Vector_2" opacity="0.821" fill-rule="evenodd" clip-rule="evenodd" d="M47.7 6.04721C47.7 6.20815 47.7 6.36909 47.7 6.53002C43.8652 7.84784 40.2173 7.4455 36.7563 5.323C35.3624 4.78671 33.9676 4.78671 32.5719 5.323C30.9915 6.03276 29.4359 6.7838 27.9048 7.57611C25.1743 8.68724 22.9748 8.04349 21.3064 5.64487C20.0626 4.7453 18.7751 4.69166 17.4439 5.48393C16.2361 6.22207 15.0023 6.91947 13.7423 7.57611C12.359 8.16548 10.9642 8.21912 9.55797 7.73705C8.62051 7.29523 7.70855 6.81242 6.82204 6.28862C4.89273 5.8983 3.36383 6.51523 2.23534 8.13939C2.11567 8.52559 1.98155 8.90111 1.833 9.26595C1.56477 9.26595 1.29654 9.26595 1.02831 9.26595C1.01514 7.97845 1.5516 6.93236 2.63768 6.12768C3.90007 5.24887 5.29486 4.92699 6.82204 5.16206C7.89179 5.69297 8.96471 6.22942 10.0408 6.77143C11.1316 7.11614 12.2045 7.0625 13.2595 6.61049C14.7243 5.73567 16.2264 4.93099 17.7658 4.19644C19.0986 3.80681 20.3861 3.91411 21.6282 4.51831C22.3256 5.2157 23.0231 5.9131 23.7204 6.61049C24.9476 7.12863 26.1813 7.12863 27.422 6.61049C29.3115 5.53163 31.2964 4.67329 33.3766 4.0355C34.514 3.90046 35.6405 3.9541 36.7563 4.19644C37.795 4.63531 38.8144 5.11812 39.8141 5.64487C41.4373 6.17416 43.1003 6.3351 44.8032 6.12768C45.7234 5.96452 46.6354 5.77676 47.5391 5.5644C47.5009 5.77217 47.5545 5.93311 47.7 6.04721Z" fill="#1F6076"/>
</g>
</g>
<defs>
<clipPath id="clip0_1_78">
<rect width="47.1545" height="8.85153" fill="white" transform="translate(0.62561 0.495178)"/>
</clipPath>
</defs>
</svg>
