<svg width="20" height="21" viewBox="0 0 20 21" fill="none" xmlns="http://www.w3.org/2000/svg">
<g id="SVG">
<g id="Group">
<path id="Vector" d="M1.61727 1.58887C0.431402 2.77474 0.618166 5.38282 2.4073 6.72653C3.98818 7.91239 4.77903 8.70325 4.77903 11.865C4.77903 15.0268 0.826416 17.0027 0.826416 19.7694M18.2161 1.58887C19.402 2.77474 19.2152 5.38282 17.4261 6.72653C15.8452 7.91239 15.0544 8.70325 15.0544 11.865C15.0544 15.0268 19.007 17.0027 19.007 19.7694" stroke="black" stroke-width="0.826389" stroke-linecap="round" stroke-linejoin="round"/>
<path id="Vector_2" d="M3.75186 7.91239C6.51695 7.91239 7.14914 6.72653 9.91672 6.72653C12.6843 6.72653 12.5256 7.91239 16.0816 7.91239M2.29163 16.6077C4.26835 16.6077 7.15079 18.1885 9.91672 18.1885C12.6835 18.1885 15.5651 16.6077 17.5418 16.6077M9.91672 15.4218V15.8168M8.33583 1.58887C9.12586 1.58887 9.91672 2.77474 9.91672 2.77474C10.0315 2.44168 10.2434 2.15067 10.5252 1.93928C10.807 1.7279 11.1457 1.60584 11.4976 1.58887" stroke="black" stroke-width="0.826389" stroke-linecap="round" stroke-linejoin="round"/>
</g>
</g>
</svg>
