<svg width="29" height="29" viewBox="0 0 29 29" fill="none" xmlns="http://www.w3.org/2000/svg">
<g id="audio">
<g id="Group">
<path id="Vector" d="M14.1664 24.9993C8.34113 24.9993 3.61914 20.2773 3.61914 14.452C3.61914 8.62677 8.34113 3.90479 14.1664 3.90479C19.9916 3.90479 24.7136 8.62677 24.7136 14.452C24.7136 20.2773 19.9916 24.9993 14.1664 24.9993ZM14.1664 5.05218C9.00309 5.05218 4.76654 9.28873 4.76654 14.452C4.76654 19.6153 9.00309 23.8519 14.1664 23.8519C19.3297 23.8519 23.5662 19.6153 23.5662 14.452C23.5662 9.2446 19.3297 5.05218 14.1664 5.05218Z" fill="#134563"/>
<path id="Vector_2" d="M11.033 19.88V8.97974L20.3887 14.4519L11.033 19.88ZM12.2686 11.1421V17.7176L17.8732 14.4519L12.2686 11.1421Z" fill="#134563"/>
</g>
</g>
</svg>
