<svg width="20" height="20" viewBox="0 0 20 20" fill="none" xmlns="http://www.w3.org/2000/svg">
<g id="Media / Icon/Filled/check-circle">
<path id="Icon" fill-rule="evenodd" clip-rule="evenodd" d="M9.97179 16.4371C13.5921 16.4371 16.5269 13.5022 16.5269 9.88198C16.5269 6.26171 13.5921 3.3269 9.97179 3.3269C6.35152 3.3269 3.41672 6.26171 3.41672 9.88198C3.41672 13.5022 6.35152 16.4371 9.97179 16.4371ZM13.0093 8.8226C13.3293 8.50261 13.3293 7.98381 13.0093 7.66382C12.6893 7.34383 12.1705 7.34383 11.8506 7.66382L9.15241 10.362L8.09303 9.30259C7.77304 8.9826 7.25424 8.9826 6.93425 9.30259C6.61426 9.62258 6.61426 10.1414 6.93425 10.4614L8.57302 12.1001C8.893 12.4201 9.41181 12.4201 9.7318 12.1001L13.0093 8.8226Z" fill="#00AFE9"/>
</g>
</svg>
