<svg width="24" height="25" viewBox="0 0 24 25" fill="none" xmlns="http://www.w3.org/2000/svg">
<g id="dislike" clip-path="url(#clip0_82_2011)">
<path id="Vector" d="M0.414551 13.141V2.87763C0.414551 2.6832 0.491788 2.49673 0.629271 2.35925C0.766754 2.22177 0.95322 2.14453 1.14765 2.14453H7.74555V13.8741H1.14765C0.95322 13.8741 0.766754 13.7969 0.629271 13.6594C0.491788 13.5219 0.414551 13.3355 0.414551 13.141Z" fill="#C3C3C3"/>
<path id="Vector_2" d="M20.941 15.3403H15.0763V19.7389C15.0763 21.3561 13.7611 22.6713 12.1439 22.6713H9.94455C9.75012 22.6713 9.56366 22.5941 9.42617 22.4566C9.28869 22.3191 9.21145 22.1326 9.21145 21.9382V18.4677L6.37583 13.5046C6.31203 13.3941 6.27865 13.2686 6.27906 13.141V2.87763C6.27906 2.6832 6.35629 2.49673 6.49378 2.35925C6.63126 2.22177 6.81773 2.14453 7.01216 2.14453H18.7784C19.3455 2.14474 19.9004 2.3094 20.3759 2.61856C20.8513 2.92771 21.2269 3.3681 21.4571 3.88638L23.8089 9.17789C23.8514 9.27136 23.8734 9.37285 23.8734 9.47553V12.4079C23.8734 14.0251 22.5583 15.3403 20.941 15.3403Z" fill="#D8D8D8"/>
</g>
<defs>
<clipPath id="clip0_82_2011">
<rect width="23.4592" height="23.4592" fill="white" transform="translate(0.414307 0.678467)"/>
</clipPath>
</defs>
</svg>
