<svg width="25" height="25" viewBox="0 0 25 25" fill="none" xmlns="http://www.w3.org/2000/svg">
<g id="dislike" clip-path="url(#clip0_82_2008)">
<path id="Vector" d="M0.429199 11.6747V21.938C0.429199 22.1325 0.508528 22.3189 0.649735 22.4564C0.790942 22.5939 0.98246 22.6711 1.18216 22.6711H7.95877V10.9416H1.18216C0.98246 10.9416 0.790942 11.0188 0.649735 11.1563C0.508528 11.2938 0.429199 11.4802 0.429199 11.6747Z" fill="#C3C3C3"/>
<path id="Vector_2" d="M21.512 9.47535H15.4884V5.07675C15.4884 3.45954 14.1376 2.14436 12.4765 2.14436H10.2177C10.018 2.14436 9.82646 2.22159 9.68525 2.35908C9.54404 2.49656 9.46471 2.68303 9.46471 2.87745V6.34795L6.55227 11.311C6.48676 11.4216 6.45246 11.547 6.45288 11.6747V21.938C6.45288 22.1325 6.53221 22.3189 6.67342 22.4564C6.81463 22.5939 7.00615 22.6711 7.20584 22.6711H19.2908C19.8733 22.6709 20.4432 22.5063 20.9315 22.1971C21.4198 21.888 21.8056 21.4476 22.0421 20.9293L24.4576 15.6378C24.5012 15.5443 24.5238 15.4428 24.5239 15.3401V12.4077C24.5239 10.7905 23.173 9.47535 21.512 9.47535Z" fill="#D8D8D8"/>
</g>
<defs>
<clipPath id="clip0_82_2008">
<rect width="24.0946" height="23.4592" fill="white" transform="matrix(1 0 0 -1 0.428711 24.1375)"/>
</clipPath>
</defs>
</svg>
