<svg width="25" height="25" viewBox="0 0 25 25" fill="none" xmlns="http://www.w3.org/2000/svg">
<g id="Button - Add to wishlist" clip-path="url(#clip0_82_2006)">
<path id="Vector" d="M17.8223 2.76281C18.7081 2.76281 19.5481 2.93082 20.3423 3.26682C21.1365 3.60282 21.8238 4.06483 22.4041 4.65284C22.9845 5.24084 23.4503 5.93194 23.8016 6.72613C24.1376 7.50505 24.3056 8.34506 24.3056 9.24616C24.3056 10.7276 23.6947 12.2778 22.4729 13.8968C21.251 15.5157 19.907 17.001 18.4408 18.3526C16.9746 19.7043 15.6306 20.823 14.4088 21.7089C13.1869 22.5947 12.576 23.0376 12.576 23.0376C12.576 23.0376 11.9651 22.61 10.7433 21.7547C9.52145 20.8994 8.17743 19.8036 6.71123 18.4672C5.24503 17.1308 3.90102 15.6455 2.67918 14.0113C1.45735 12.3924 0.846436 10.804 0.846436 9.24616C0.846436 8.13124 1.01444 7.16905 1.35044 6.35958C1.70172 5.53485 2.16754 4.85902 2.74791 4.33211C3.32828 3.80519 4.01556 3.41191 4.80975 3.15227C5.58867 2.89263 6.42868 2.76281 7.32978 2.76281C8.41416 2.76281 9.41072 3.00718 10.3195 3.49591C11.2282 3.98465 11.9804 4.63375 12.576 5.44321C13.1717 4.63375 13.9239 3.98465 14.8326 3.49591C15.7413 3.00718 16.7379 2.76281 17.8223 2.76281Z" fill="#DC2626"/>
</g>
<defs>
<clipPath id="clip0_82_2006">
<rect width="23.9284" height="23.4592" fill="white" transform="matrix(1 0 0 -1 0.609863 24.1375)"/>
</clipPath>
</defs>
</svg>
