<svg width="30" height="30" viewBox="0 0 30 30" fill="none" xmlns="http://www.w3.org/2000/svg">
<g id="bicycle">
<path id="Vector" d="M22.459 15.2089C22.275 15.2089 22.0909 15.2458 21.9192 15.258L19.9318 9.30799C19.6373 8.42468 18.8154 7.83582 17.8952 7.83582H16.3249C15.8219 7.83582 15.4048 8.25293 15.4048 8.75592C15.4048 9.25892 15.8219 9.67603 16.3249 9.67603H17.8952C18.0302 9.67603 18.1406 9.76191 18.1897 9.88459L18.9994 12.3014L15.3803 17.7239L13.9204 13.3442C14.4111 13.3197 14.7914 12.9271 14.7914 12.4364C14.7914 11.9456 14.3743 11.5162 13.8713 11.5162H10.1909C9.68789 11.5162 9.27077 11.9334 9.27077 12.4364C9.27077 12.9393 9.68789 13.3565 10.1909 13.3565H11.982L13.8222 18.8771H12.2397C11.8103 16.7793 9.95779 15.1967 7.73726 15.1967C5.19776 15.1967 3.13672 17.2577 3.13672 19.7972C3.13672 22.3367 5.19776 24.3978 7.73726 24.3978C9.95779 24.3978 11.8225 22.8152 12.2397 20.7173H15.0981C15.1963 20.7173 15.2944 20.7051 15.3926 20.6683C15.4171 20.6683 15.4416 20.6314 15.4662 20.6192C15.5152 20.5946 15.552 20.5701 15.5888 20.5456C15.6747 20.4965 15.7361 20.4352 15.7974 20.3616C15.8097 20.337 15.8465 20.3247 15.8587 20.3002L19.7232 14.5097L20.1648 15.8346C18.7908 16.632 17.8584 18.1042 17.8584 19.7972C17.8584 22.3367 19.9195 24.3978 22.459 24.3978C24.9985 24.3978 27.0595 22.3367 27.0595 19.7972C27.0595 17.2577 24.9985 15.1967 22.459 15.1967V15.2089ZM7.73726 22.5698C6.21601 22.5698 4.97693 21.3307 4.97693 19.8095C4.97693 18.2882 6.21601 17.0492 7.73726 17.0492C8.93953 17.0492 9.94552 17.8221 10.3258 18.8894H7.73726C7.23427 18.8894 6.81715 19.3065 6.81715 19.8095C6.81715 20.3125 7.23427 20.7296 7.73726 20.7296H10.3258C9.94552 21.7969 8.92726 22.5698 7.73726 22.5698ZM22.459 22.5698C20.9377 22.5698 19.6987 21.3307 19.6987 19.8095C19.6987 18.9262 20.1158 18.1533 20.766 17.6503L21.588 20.1039C21.7106 20.4842 22.0787 20.7296 22.459 20.7296C22.5571 20.7296 22.6553 20.7173 22.7534 20.6805C23.2319 20.521 23.4895 19.9935 23.33 19.5151L22.5081 17.0492C24.0048 17.0737 25.2193 18.3005 25.2193 19.8095C25.2193 21.3185 23.9802 22.5698 22.459 22.5698Z" fill="black"/>
</g>
</svg>
