<svg width="24" height="25" viewBox="0 0 24 25" fill="none" xmlns="http://www.w3.org/2000/svg">
<g id="Icon">
<path id="Vector" d="M7.5 4.2879L16.5 9.4379" stroke="white" stroke-width="2" stroke-linecap="round" stroke-linejoin="round"/>
<path id="Vector_2" d="M21 8.01791C20.9996 7.66718 20.9071 7.32272 20.7315 7.01907C20.556 6.71542 20.3037 6.46327 20 6.28791L13 2.28791C12.696 2.11237 12.3511 2.01996 12 2.01996C11.6489 2.01996 11.304 2.11237 11 2.28791L4 6.28791C3.69626 6.46327 3.44398 6.71542 3.26846 7.01907C3.09294 7.32272 3.00036 7.66718 3 8.01791V16.0179C3.00036 16.3686 3.09294 16.7131 3.26846 17.0167C3.44398 17.3204 3.69626 17.5725 4 17.7479L11 21.7479C11.304 21.9234 11.6489 22.0159 12 22.0159C12.3511 22.0159 12.696 21.9234 13 21.7479L20 17.7479C20.3037 17.5725 20.556 17.3204 20.7315 17.0167C20.9071 16.7131 20.9996 16.3686 21 16.0179V8.01791Z" stroke="white" stroke-width="2" stroke-linecap="round" stroke-linejoin="round"/>
<path id="Vector_3" d="M3.2998 7.01788L11.9998 12.0179L20.6998 7.01788" stroke="white" stroke-width="2" stroke-linecap="round" stroke-linejoin="round"/>
<path id="Vector_4" d="M12 22.0179V12.0179" stroke="white" stroke-width="2" stroke-linecap="round" stroke-linejoin="round"/>
</g>
</svg>
