<svg width="25" height="27" viewBox="0 0 25 27" fill="none" xmlns="http://www.w3.org/2000/svg">
<g id="running" clip-path="url(#clip0_176_21)">
<path id="Vector" fill-rule="evenodd" clip-rule="evenodd" d="M16.5801 6.28372C16.9497 6.28597 17.316 6.21486 17.6578 6.07451C17.9997 5.93416 18.3102 5.72736 18.5716 5.46609C18.8329 5.20483 19.0398 4.89429 19.1803 4.55249C19.3207 4.21068 19.3919 3.8444 19.3898 3.47486C19.3773 2.73826 19.0759 2.03605 18.5506 1.51955C18.0253 1.00306 17.318 0.713623 16.5813 0.713623C15.8446 0.713623 15.1374 1.00306 14.6121 1.51955C14.0867 2.03605 13.7854 2.73826 13.7729 3.47486C13.7706 3.84422 13.8417 4.21035 13.982 4.55205C14.1222 4.89375 14.3289 5.20422 14.59 5.46547C14.8511 5.72672 15.1614 5.93357 15.5031 6.07403C15.8447 6.21449 16.2108 6.28576 16.5801 6.28372ZM21.6666 6.7084C20.0228 8.98682 17.8501 9.25164 15.5176 7.87426C15.1939 7.66016 14.8577 7.46551 14.5108 7.29133C10.7476 5.0654 6.98526 5.91314 4.4937 9.46398C3.43442 10.9479 5.92518 12.3786 6.93278 10.8955C8.25688 9.03849 9.89989 8.50966 11.7028 9.09339C10.8017 10.7364 9.95318 12.3229 8.83981 14.5521C7.67315 16.8313 5.1832 18.6333 2.74412 17.2552C2.58059 17.1462 2.39697 17.0709 2.20399 17.0338C2.01102 16.9966 1.81258 16.9984 1.62029 17.0389C1.42799 17.0794 1.24571 17.1578 1.0841 17.2696C0.922499 17.3814 0.784825 17.5244 0.679137 17.69C0.57345 17.8557 0.501875 18.0408 0.4686 18.2345C0.435326 18.4282 0.441021 18.6265 0.485353 18.818C0.529685 19.0094 0.611763 19.1901 0.726782 19.3494C0.8418 19.5088 0.987449 19.6436 1.1552 19.7459C2.64222 20.5938 4.38288 20.8834 6.06434 20.5629C7.7458 20.2423 9.2578 19.3326 10.3286 17.9971C10.3819 17.9971 10.4901 18.0496 10.5401 18.0496C12.1206 18.7068 13.6016 19.5813 14.9403 20.6478C15.5757 21.1766 16.6883 23.8773 17.3245 25.2579C18.1731 26.9009 20.7155 25.7342 19.9218 24.0387C19.1791 22.5047 17.9074 19.4278 16.9539 18.6333C15.8043 17.7462 14.6003 16.9319 13.349 16.1951C14.2508 14.4996 15.1519 12.8566 16.1054 11.2136C19.1266 12.1138 22.042 11.0521 24.1089 8.13908C25.1682 6.65593 22.7315 5.22445 21.6714 6.7084H21.6666Z" fill="black"/>
</g>
<defs>
<clipPath id="clip0_176_21">
<rect width="23.9452" height="25.3823" fill="white" transform="translate(0.422363 0.666748)"/>
</clipPath>
</defs>
</svg>
