<svg width="22" height="23" viewBox="0 0 22 23" fill="none" xmlns="http://www.w3.org/2000/svg">
<g id="yoga">
<path id="Vector" d="M11.0984 7.79747C12.7543 7.79747 14.0967 6.45509 14.0967 4.79919C14.0967 3.14328 12.7543 1.8009 11.0984 1.8009C9.44247 1.8009 8.1001 3.14328 8.1001 4.79919C8.1001 6.45509 9.44247 7.79747 11.0984 7.79747Z" fill="black"/>
<path id="Vector_2" d="M19.7598 12.4614H18.2407L15.6056 9.55977C15.3867 9.31976 15.1202 9.12797 14.823 8.99663C14.5259 8.86528 14.2047 8.79725 13.8799 8.79688H8.3164C7.99156 8.79725 7.67035 8.86528 7.37324 8.99663C7.07613 9.12797 6.80963 9.31976 6.59073 9.55977L3.95557 12.4614H2.43644C2.17137 12.4614 1.91717 12.5667 1.72974 12.7542C1.54231 12.9416 1.43701 13.1958 1.43701 13.4609C1.43701 13.7259 1.54231 13.9801 1.72974 14.1676C1.91717 14.355 2.17137 14.4603 2.43644 14.4603H5.10158C5.17939 14.4603 5.25478 14.4332 5.31479 14.3837L7.38027 12.6613L7.63679 15.8495L3.71904 15.5363C3.35007 15.5062 2.98285 15.6123 2.68684 15.8346C2.39083 16.057 2.18658 16.3801 2.11271 16.7428C2.03885 17.1056 2.1005 17.4828 2.286 17.8032C2.47151 18.1235 2.768 18.3648 3.11938 18.4813L7.46689 19.9305L10.3552 20.8933C10.6077 20.977 10.8818 20.9672 11.1276 20.8657C11.3735 20.7642 11.5746 20.5777 11.6945 20.3403C11.7315 20.2673 11.7595 20.1901 11.7778 20.1104C11.8417 19.8559 11.8127 19.5869 11.6961 19.3518C11.5794 19.1167 11.3828 18.9309 11.1415 18.8278L7.95661 17.4619L8.21646 16.8489L11.348 18.1915L11.3447 18.1782L14.6628 17.1421L14.8627 17.7751L12.0209 18.6646C12.1735 18.8299 12.2923 19.0234 12.3707 19.2342C12.4528 19.4613 12.488 19.7027 12.474 19.9438L18.977 18.398C19.3332 18.3125 19.6442 18.0958 19.8478 17.7912C20.0514 17.4866 20.1328 17.1165 20.0756 16.7545C20.0184 16.3926 19.827 16.0656 19.5394 15.8385C19.2518 15.6115 18.8892 15.5012 18.5239 15.5297L14.5595 15.8495L14.816 12.6613L16.8815 14.3837C16.9415 14.4332 17.0169 14.4603 17.0947 14.4603H19.7598C20.0249 14.4603 20.2791 14.355 20.4666 14.1676C20.654 13.9801 20.7593 13.7259 20.7593 13.4609C20.7593 13.1958 20.654 12.9416 20.4666 12.7542C20.2791 12.5667 20.0249 12.4614 19.7598 12.4614Z" fill="black"/>
</g>
</svg>
